<svg viewBox="0 0 679 1280" xmlns="http://www.w3.org/2000/svg" preserveAspectRatio="xMidYMid meet">
    <g>
        <title>Layer 1</title>
        <g id="g24" transform="matrix(-0.1,0,0,-0.1,677.9477,1280) " fill="#0e0101">
            <path id="path4" d="m4475,12770c-202,-25 -335,-73 -437,-156c-101,-83 -239,-274 -378,-524c-66,-119 -87,-147 -176,-235c-132,-131 -138,-150 -88,-278c19,-48 39,-96 44,-105c4,-9 34,-78 65,-152c31,-74 64,-151 72,-170c8,-19 25,-60 37,-90c19,-50 25,-56 71,-73c28,-11 99,-29 160,-40c93,-17 118,-18 165,-9c72,15 107,15 112,0c5,-14 -35,-232 -56,-304c-41,-146 -122,-201 -316,-213l-105,-6l-6,-95c-4,-52 -14,-119 -23,-149c-21,-72 -20,-145 3,-277c30,-168 77,-270 186,-409c71,-89 234,-254 308,-309l49,-36l708,0c811,0 754,7 704,-86l-29,-54l-925,-2c-601,-2 -932,0 -946,7c-12,6 -43,34 -70,63c-38,43 -44,56 -33,63c8,5 94,9 192,9c97,0 177,4 177,8c0,5 -31,42 -68,84c-129,141 -260,326 -310,438c-66,148 -76,199 -77,390c0,144 3,184 18,227c10,29 17,69 15,90l-3,38l-122,-1c-338,-3 -549,-124 -635,-365c-22,-61 -23,-76 -22,-334c0,-274 22,-514 49,-551c10,-14 32,-14 190,-4c374,25 524,-18 649,-189c218,-296 388,-1006 403,-1683c6,-226 5,-240 -17,-310c-36,-120 -57,-189 -79,-273c-12,-44 -29,-105 -37,-135c-8,-30 -21,-77 -29,-105c-7,-27 -16,-66 -20,-85c-4,-19 -13,-57 -20,-85c-17,-62 -49,-196 -70,-295c-9,-41 -24,-113 -35,-160c-28,-129 -48,-231 -55,-275c-3,-22 -12,-69 -20,-105c-8,-36 -23,-117 -35,-180c-12,-63 -27,-146 -35,-185c-16,-76 -44,-245 -105,-620c-12,-71 -27,-166 -35,-210c-7,-44 -16,-102 -20,-130c-3,-27 -12,-90 -20,-140c-19,-125 -51,-339 -70,-470c-48,-338 -57,-398 -70,-485c-8,-52 -17,-117 -20,-145c-3,-27 -12,-93 -20,-145c-8,-52 -21,-147 -30,-210c-23,-163 -52,-364 -111,-755c-8,-55 -24,-150 -35,-211c-11,-61 -17,-118 -13,-127c3,-10 17,-17 33,-17c50,0 56,-11 41,-82c-21,-100 -104,-348 -147,-434c-82,-168 -178,-283 -307,-368c-132,-88 -218,-118 -551,-196c-49,-11 -115,-27 -145,-34c-72,-19 -207,-52 -243,-60c-79,-18 -39,-134 65,-187c36,-18 68,-19 764,-19l727,0l40,43c21,23 55,61 74,84l35,42l8,143c13,211 46,371 126,616c56,170 152,412 172,435c14,16 71,17 932,17c800,0 919,-2 930,-15c19,-23 37,-447 21,-503c-22,-78 -136,-174 -301,-253c-249,-119 -486,-199 -840,-283c-80,-19 -185,-43 -233,-55c-48,-12 -99,-21 -112,-21c-14,0 -34,-9 -44,-19c-16,-16 -18,-26 -11,-53c13,-47 68,-90 160,-127l80,-31l152,16c84,8 155,17 159,19c16,11 367,35 494,35c125,0 365,-23 387,-36c17,-10 245,-33 332,-34c230,0 358,63 386,192c18,86 5,432 -25,668c-8,63 -20,151 -25,195c-27,207 -33,273 -27,288c5,14 21,17 90,17c111,0 114,4 86,106c-24,88 -57,236 -68,304c-5,25 -15,81 -24,125c-35,181 -74,459 -87,625c-6,69 -17,310 -25,535c-8,226 -21,482 -30,570c-8,88 -20,207 -26,265c-5,58 -16,168 -24,245c-20,210 -35,348 -50,470c-8,61 -17,139 -20,175c-3,36 -12,117 -20,180c-8,63 -19,156 -25,205c-14,125 -43,360 -76,600c-9,66 -20,156 -25,200c-5,44 -13,103 -19,130c-5,28 -12,75 -15,105c-3,30 -12,96 -20,145c-28,181 -36,231 -45,290c-22,135 -79,309 -172,520c-67,152 -136,359 -157,472c-25,128 25,541 94,783c7,25 23,81 35,125c25,90 88,281 120,365c12,30 27,71 35,90c7,19 21,52 31,73l18,37l317,0c175,0 324,3 333,6c20,8 20,33 2,98c-28,97 -46,176 -46,196c0,15 7,20 29,20c62,0 61,-4 61,189c0,304 -50,609 -170,1039c-25,89 -123,384 -156,470c-63,163 -78,199 -130,319c-31,70 -85,184 -120,253c-79,155 -82,171 -19,131c55,-35 263,-165 377,-235c62,-38 143,-89 180,-113c71,-46 108,-55 108,-25c1,9 5,124 10,256c5,131 6,244 4,251c-7,17 -24,24 -94,40c-30,8 -127,32 -215,55c-88,23 -187,48 -220,56c-94,23 -138,64 -68,64c14,0 64,9 112,20c47,11 115,26 151,34c36,9 103,24 150,35c47,11 102,22 123,26c28,4 37,11 37,25c0,28 -200,360 -217,360c-7,0 -26,-9 -41,-19c-38,-27 -148,-97 -277,-175c-60,-37 -137,-85 -170,-106c-135,-87 -242,-150 -252,-150c-6,0 -26,19 -44,43c-73,93 -178,203 -254,264c-100,82 -197,128 -322,154c-112,23 -314,32 -418,19zm261,-129c173,-20 301,-85 461,-233c118,-110 223,-230 223,-255l0,-23l-554,0c-524,0 -555,1 -577,19c-37,28 -81,48 -156,72c-130,40 -185,62 -190,76c-8,19 91,120 191,195c122,91 232,135 373,147c128,12 140,12 229,2zm1528,-106c20,-30 36,-59 36,-64c0,-11 -70,-35 -165,-55c-38,-9 -112,-25 -163,-36c-52,-12 -96,-19 -99,-16c-9,9 34,42 127,97c47,28 112,68 145,89c33,21 65,39 71,39c6,1 28,-24 48,-54zm-272,-483c68,-24 202,-65 323,-100c29,-8 30,-11 33,-73c2,-41 -2,-70 -10,-82c-12,-16 -18,-14 -78,24c-36,22 -126,78 -200,124c-152,95 -163,102 -155,116c9,13 28,11 87,-9zm-439,-84c70,-94 206,-350 287,-543c23,-55 54,-127 68,-160c32,-75 129,-350 165,-470c60,-199 148,-542 181,-710c41,-204 70,-432 60,-460c-5,-13 -60,-15 -464,-15c-408,0 -459,2 -464,16c-3,9 -6,245 -6,525l0,509l-22,5c-13,3 -166,5 -341,3c-269,-3 -319,-5 -327,-18c-6,-9 -10,-235 -10,-561c0,-489 -2,-547 -16,-553c-23,-9 -167,-7 -181,2c-10,6 -13,192 -13,851c0,776 1,845 16,862c10,11 22,19 28,19c22,0 181,83 244,127c100,71 152,176 152,306c0,85 -31,178 -69,208c-40,32 -121,23 -192,-21c-47,-30 -63,-34 -118,-35l-65,0l-30,56c-51,96 -95,89 538,89l555,0l24,-32zm-1674,-22c7,-8 11,-32 9,-53l-3,-38l-64,-3c-79,-4 -98,10 -58,41c15,12 40,32 55,44c32,26 45,28 61,9zm221,-12c57,-38 51,-60 -20,-77c-37,-9 -52,5 -57,57c-5,42 -4,46 16,46c12,0 39,-12 61,-26zm305,-1464l0,-35l-143,-3c-148,-3 -182,4 -182,36c0,38 19,43 175,40l150,-3l0,-35zm833,12c7,-49 -6,-52 -212,-52c-213,0 -234,5 -222,54l6,26l213,-2l212,-3l3,-23zm-828,-191c5,-11 10,-28 10,-38c-1,-43 -10,-45 -179,-45c-88,0 -166,4 -172,7c-13,9 -2,77 14,87c7,4 80,8 164,8c140,0 153,-2 163,-19zm828,-25c2,-21 -1,-43 -6,-48c-10,-10 -386,-13 -403,-3c-13,9 -11,69 3,83c9,9 64,12 208,10l195,-3l3,-39zm-827,-213c21,-55 11,-58 -192,-58c-182,0 -184,0 -187,22c-2,12 6,31 17,42c20,20 33,21 186,21l165,0l11,-27zm818,13c7,-8 11,-27 9,-43l-3,-28l-194,-3c-200,-3 -221,1 -221,39c0,44 21,49 214,49c148,0 186,-3 195,-14zm-851,-198c19,-19 15,-66 -7,-78c-21,-11 -308,-14 -335,-4c-19,7 -22,64 -4,82c8,8 61,12 173,12c112,0 165,-4 173,-12zm846,6c20,-8 21,-67 2,-83c-10,-9 -68,-11 -201,-9c-152,2 -187,6 -195,18c-15,24 -12,58 8,69c18,11 359,15 386,5zm-850,-237c12,-9 17,-23 14,-42l-3,-30l-204,-3c-120,-1 -209,2 -214,7c-15,15 2,61 26,71c37,15 360,12 381,-3zm855,-1c7,-8 11,-27 9,-43l-3,-28l-194,-3c-200,-3 -221,1 -221,39c0,41 34,49 221,49c141,0 179,-3 188,-14zm806,-7642c9,-31 14,-63 11,-70c-4,-11 -77,-14 -403,-16l-398,-3l-3,-46c-5,-84 -27,-80 440,-79c354,1 413,0 426,-13c20,-21 30,-117 11,-117c-8,0 -653,0 -1434,0c-1325,0 -1421,1 -1432,17c-17,22 -16,74 0,97c12,17 29,18 175,17c197,-2 204,0 200,72l-3,52l-140,2c-193,4 -185,1 -185,72c0,32 3,61 7,64c3,4 615,7 1359,7l1353,0l16,-56z" />
            <path id="path6" d="m3957,1903c-13,-12 -7,-100 7,-112c10,-8 136,-11 465,-9c503,3 471,-2 471,74c0,29 -5,44 -16,48c-21,8 -919,8 -927,-1z" />
            <path id="path8" d="m655,11594c-11,-3 -49,-12 -85,-20c-76,-18 -172,-49 -217,-70c-17,-7 -35,-14 -40,-14c-10,0 -207,-81 -240,-99c-13,-6 -23,-15 -23,-20c0,-4 37,-33 82,-63c284,-189 489,-460 583,-768c39,-130 46,-160 68,-284c20,-119 21,-152 24,-1684c3,-1151 1,-1567 -7,-1577c-9,-11 -34,-13 -109,-8c-100,6 -151,0 -151,-17c0,-14 41,-33 153,-70c100,-34 130,-57 107,-85c-9,-10 -27,-9 -102,11c-51,13 -102,24 -113,24c-37,0 -87,-70 -100,-142c-16,-86 48,-134 263,-199c24,-7 47,-20 53,-30c5,-11 9,-652 9,-1649c0,-1432 -2,-1635 -15,-1660c-8,-16 -57,-63 -109,-104c-88,-70 -138,-123 -181,-191c-14,-21 -20,-54 -23,-115c-4,-91 2,-134 42,-275c16,-55 26,-116 26,-156c0,-60 -4,-72 -35,-118c-47,-68 -58,-97 -45,-122c16,-29 36,-23 86,23c56,51 102,120 144,213c44,97 49,157 20,242c-31,93 -31,187 0,239c56,94 117,134 205,134c58,0 103,-17 143,-54c47,-42 52,-74 52,-300c0,-241 8,-302 47,-383c52,-107 171,-153 181,-69c4,28 -24,80 -58,111c-17,15 -20,30 -20,95c0,61 7,100 35,184c76,233 31,371 -190,581l-105,100l0,1651c0,1337 2,1654 13,1668c18,25 117,46 222,46c92,0 302,16 343,25c12,3 22,12 22,20c0,7 -32,48 -71,90c-39,42 -77,92 -85,111c-8,19 -18,34 -22,35c-4,0 -43,2 -87,4c-150,7 -301,51 -324,94c-14,26 -15,3552 -1,3659c31,235 171,437 452,648c37,28 88,62 113,75c82,43 54,70 -155,151c-220,85 -338,108 -565,113c-104,2 -199,2 -210,-1z" />
            <path id="path10" d="m5754,9115c-4,-8 -2,-21 3,-28c6,-6 23,-47 38,-90c21,-58 33,-79 49,-82c12,-3 154,-7 316,-8c273,-2 295,-1 298,15c3,17 -10,51 -61,158l-22,45l-308,3c-268,2 -308,0 -313,-13zm466,-91c36,-25 65,-50 65,-57c0,-16 -277,-17 -282,-1c-5,16 105,104 131,104c11,0 50,-21 86,-46z" />
            <path id="path12" d="m2773,9082c-17,-11 -5,-178 14,-197c20,-21 557,-19 578,2c22,21 21,166 -1,187c-13,14 -54,16 -297,16c-155,0 -287,-4 -294,-8zm346,-65c20,-17 49,-41 65,-53c20,-14 27,-26 23,-38c-5,-14 -25,-16 -135,-16c-169,0 -177,7 -85,83c38,31 74,57 82,57c7,0 30,-15 50,-33z" />
            <path id="path14" d="m5853,8804c-3,-8 1,-29 10,-47c96,-203 222,-690 268,-1042c5,-38 15,-113 23,-165c8,-52 21,-144 30,-205c75,-529 88,-604 101,-615c20,-17 257,-25 309,-10c57,16 100,58 121,118c21,63 19,255 -5,627c-25,381 -50,616 -95,885c-8,47 -17,103 -20,125c-9,61 -43,195 -65,254c-35,97 -10,91 -362,91c-270,0 -309,-2 -315,-16z" />
            <path id="path16" d="m2783,8803c-18,-7 -17,-295 2,-603c13,-195 14,-273 5,-380c-14,-163 -27,-262 -42,-313c-17,-57 -86,-112 -223,-177c-196,-94 -232,-109 -555,-235c-224,-87 -280,-110 -358,-147c-50,-24 -82,-45 -80,-53c5,-19 225,-225 242,-225c39,0 326,87 411,124c17,7 73,30 125,50c52,21 109,43 125,51c17,8 55,25 85,38c214,96 269,123 405,201c262,150 414,276 460,381c24,53 25,64 24,248c0,106 -4,244 -9,307c-5,63 -12,250 -16,415c-5,256 -9,302 -22,313c-12,9 -85,12 -291,11c-152,0 -282,-3 -288,-6z" />
            <path id="path18" d="m6279,6639c-12,-23 -9,-152 4,-165c11,-11 391,-4 402,7c15,15 10,160 -7,170c-7,5 -97,9 -200,9c-181,0 -188,-1 -199,-21z" />
            <path id="path20" d="m6308,6385c-73,-16 -119,-51 -152,-117c-25,-49 -26,-60 -27,-212c0,-148 -6,-214 -25,-288c-4,-20 -3,-28 7,-28c27,0 51,66 74,205c23,140 43,201 70,212c8,3 33,-9 55,-27c30,-24 40,-39 40,-60c0,-16 -29,-117 -65,-225c-36,-109 -65,-206 -65,-216c0,-38 101,-60 180,-39c77,20 165,126 206,248c63,185 104,486 74,543c-10,18 -22,19 -163,18c-84,-1 -178,-7 -209,-14z" />
            <path id="path22" d="m6596,5613c-57,-154 -111,-259 -149,-287l-28,-21l-116,118c-63,64 -119,117 -124,117c-28,0 12,-84 86,-181c77,-101 68,-119 -54,-119c-67,0 -71,-1 -77,-24c-3,-14 -3,-30 1,-35c4,-7 51,-11 120,-11c76,0 116,-4 121,-12c9,-14 6,-205 -6,-359c-5,-76 -5,-118 2,-126c16,-20 145,-17 156,3c8,15 3,75 -18,220c-23,150 -29,248 -18,261c7,9 38,13 98,13c97,0 121,11 101,49c-10,17 -23,21 -93,23c-47,2 -83,8 -85,14c-2,6 15,34 38,63c69,86 116,187 124,268c7,69 -6,153 -24,153c-4,0 -29,-57 -55,-127z" />
        </g>
        <path id="svg_2" d="m520.16548,137.33243" opacity="0.5" fill-opacity="null" stroke-opacity="null" stroke-width="1.5" stroke="#000" fill="#fff" />
        <path id="svg_4" d="m588.16504,105.33264" opacity="0.5" fill-opacity="null" stroke-opacity="null" stroke-width="1.5" stroke="#000" fill="#fff" />
        <path id="svg_6" d="m584.16506,33.33312" opacity="0.5" fill-opacity="null" stroke-opacity="null" stroke-width="1.5" stroke="#000" fill="#fff" />
        <path id="svg_7" d="m588.16504,82.66613" opacity="0.5" fill-opacity="null" stroke-opacity="null" stroke-width="1.5" stroke="#000" fill="#fff" />
        <path id="svg_9" d="m532.1654,134.66578c0,0 26.6665,-9.33327 26.49759,-9.33327c0.16891,0 30.83537,-5.3333 30.66647,-5.3333c0.1689,0 24.16875,-1.33332 23.99984,-1.33332c0.16891,0 26.8354,7.99995 26.66649,7.99994c0.16891,0.00001 16.1688,7.99995 15.9999,7.99995c0.1689,0 10.8355,-23.99984 10.66659,-23.99984c0.16891,0 2.83556,-21.33319 2.66665,-21.33319c0.16891,0 -13.16434,-19.99987 -13.33324,-19.99987c0.1689,0 -5.1644,23.99984 -5.3333,23.99984c0.1689,0 -14.49767,9.33327 -14.66657,9.33327c0.1689,0 -5.16439,-18.66654 -5.3333,-18.66654c0.16891,0 9.50218,-26.66649 9.33327,-26.66649c0.16891,0 9.50218,-13.33325 9.33327,-13.33325c0.16891,0 -30.49756,13.33325 -30.49756,11.99992c0,-1.33332 -15.99989,14.66657 -16.1688,14.66657c0.16891,0 -2.49774,-30.66646 -2.66665,-30.66646c0.16891,0 9.50218,-11.99992 9.33328,-11.99992c0.1689,0 -39.83084,26.66649 -39.99974,26.66649c0.1689,0 -7.83104,22.66652 -7.99995,22.66651c0.16891,0.00001 -11.83102,-34.66643 -11.99992,-34.66643c0.1689,0 -19.83096,23.99984 -19.99987,23.99984c0.16891,0 -18.49764,25.33317 -18.66654,25.33316c0.1689,0.00001 21.50209,42.66639 21.50209,42.66639z" stroke-opacity="null" stroke-width="1.5" stroke="#000" fill="#ff7f00" />
    </g>
</svg>