<svg viewBox="0 0 1280 726" xmlns="http://www.w3.org/2000/svg">
    <g>
        <title>Layer 1</title>
        <path fill="none" d="m-1,-1l582,0l0,402l-582,0l0,-402z" id="svg_1" />
        <path d="m631.90001,8.50507c-11.5,17.9 -21.2,40.5 -25.5,59.8c-1.1,4.9 -1.7,12.4 -1.7,21.5c-0.1,17.3 1,22.5 9,41.2c0.2,0.6 -4.5,-2.2 -10.6,-6.2c-35.5,-23.4 -61,-29.5 -81,-19.3c-7.8,4 -12.4,10 -14.1,18.4c-4,19 10.2,46.1 26.2,50.5c5,1.3 9.4,-0.1 13.3,-4.1c2.9,-3 2.9,-3 1.2,-6.5c-4.1,-8.5 -0.9,-16.1 8.5,-20.8c14.7,-7.4 35.2,-2.8 43.6,9.8c2.9,4.3 3.3,5.5 2.7,9c-0.8,5.4 -4.9,12.5 -16,27.5c-9.8,13.3 -11.3,15.7 -12.5,20c-1.1,3.8 0.4,5 6,5c14.3,0 28.9,-8.1 34.3,-19.1l2.5,-4.9l5.2,12.6l5.2,12.6l-1.2,6.7c-1.9,11.4 -7.9,38 -12,53.2c-23.9,88.6 -59.7,140.40001 -104.9,152.00001c-36.6,9.4 -81.6,-17.6 -126,-75.60001c-4.8,-6.2 -6,-8.6 -5.7,-10.5c0.3,-1.4 0.8,-7.6 1.2,-13.8c0.3,-6.1 0.8,-11.2 1.1,-11.2c0.2,0 1.5,1.3 2.9,2.9c3.9,4.7 12.5,8.2 21.3,8.8c8.6,0.6 18,-1 21.1,-3.5c1.9,-1.6 2,-2.1 0.9,-4.5c-1.3,-2.9 -9.3,-9.3 -23.4,-18.7c-9.4,-6.3 -17.1,-13.3 -19.2,-17.4c-1,-1.9 -1.3,-4.2 -0.9,-6.8c2.2,-13.8 16.9,-25.5 33.1,-26.6c8.6,-0.5 13.1,0.7 17.1,4.9c2.4,2.6 3,4.1 3.4,9.7c0.5,6.2 0.7,6.8 3.5,8.1c13.3,6.5 26,-8.5 27.3,-32c0.8,-17 -4.7,-29.4 -15.7,-35.1c-4.5,-2.4 -6.5,-2.8 -13.2,-2.8c-22.3,0 -42.7,14.6 -68.4,49c-2.6,3.6 -5.1,6.8 -5.4,7.2c-0.3,0.4 -0.6,-5.9 -0.7,-14c0,-18.1 -1.8,-25.4 -10.4,-42.7c-6.8,-13.7 -14.9,-25 -27.10001,-37.9c-11.2,-11.9 -27,-25.1 -28,-23.4c-1.1,2 -4.6,16.1 -6.6,26.8c-1.3,7.3 -1.7,14.5 -1.7,31c0,20.1 0.2,22.2 2.7,31.5c3.6,13.2 10,26.2 17.6,35.7c3.5,4.3 6.7,7.8 7.2,7.8c0.5,0 0.9,0.4 0.9,1c0,0.6 -1,0.6 -2.7,-0.1c-11.7,-4.4 -41.8,-9.9 -54.4,-9.9c-19.6,0.1 -38.3,9.2 -44.5,21.8c-1.4,2.7 -1.9,5.9 -1.9,11.8c0,7.2 0.4,8.7 3.7,15.6c4.8,9.5 14.2,19.4 22.9,23.7c8.4,4.2 16.3,4.4 20.9,0.5c1.7,-1.5 3.7,-3.9 4.5,-5.5c1.5,-2.7 1.4,-3 -2,-7.5c-4.4,-5.8 -4.8,-11.6 -1.1,-17.9c6.7,-11.3 26.5,-17.6 39.9,-12.5c7.2,2.7 12.2,7 13.1,11.1c0.9,4.9 -0.9,13.9 -6.5,31.4c-5.9,18.8 -6.9,24.4 -4.5,26.4c2.4,2 8.2,-0.1 16.5,-6c9.7,-6.8 15.10001,-14.7 16.70001,-24.6l0.6,-4.2l8.4,9.7l8.4,9.7l0,8.5c0,11 -2.6,43.50001 -4.6,57.00001c-6,41.4 -17.50001,70.6 -33.90001,85.8c-7.9,7.4 -13.7,10.3 -29,14.2c-9.7,2.5 -14.7,3.2 -26,3.7c-12.8,0.4 -14.9,0.2 -23.9,-2.1c-18.3,-4.7 -45,-19.8 -69.3,-39c-7.4,-5.9 -8.3,-7 -9.7,-12c-0.9,-3 -1.9,-6.2 -2.2,-7.1c-0.5,-1.3 -0.2,-1.3 3.6,0c11.2,3.9 26.9,-0.9 38,-11.6c7.8,-7.6 4,-9.9 -21,-12.9c-29,-3.4 -35,-6.2 -36.5,-16.9c-0.8,-5.9 1.4,-15.6 5,-21.6c3.1,-5.4 11.5,-13.10001 16.8,-15.50001c5.5,-2.5 12.1,-2.5 16.1,0c3.2,1.9 4.6,4 6.6,9.2c1.2,3.50001 4.8,3.70001 11,0.5c8,-4 10.8,-14.4 7.6,-28.1c-5.1,-21.7 -20.3,-36.8 -35.7,-35.4c-11.5,1.1 -25.5,12 -33.2,25.9c-6.5,11.7 -14.2,38.60001 -16.3,57.10001c-0.4,3.2 -1.1,5.8 -1.5,5.8c-0.5,0 -0.9,-0.6 -0.9,-1.4c0,-3.2 -9.3,-19.6 -14.9,-26.30001c-15.8,-18.7 -46.6,-34.5 -80.1,-41.2c-11.5,-2.3 -22,-3.7 -22,-2.9c0,0.8 24.7,23.4 37.9,34.7c41.8,35.60001 51.1,43.80001 65.3,57.20001c8.6,8.2 22.8,22.7 31.6,32.2c13.1,14.1 18.7,21.2 30.7,38.7c40.8,59.6 52.4,85.1 57,124.5c0.9,7.7 1.7,14 1.9,14.2c0.1,0.1 186.30001,0.6 413.80001,0.9l413.50001,0.7l0.7,-6.3c3.5,-30.4 26.4,-79.9 61.2,-131.6c16.9,-25.2 28.1,-40.1 38.6,-51.4c15.2,-16.2 38.8,-38.1 66.8,-61.8c25.6,-21.80001 52.3,-45.50001 57,-50.70001l2.5,-2.7l-5.5,0.7c-42,5.2 -79.7,22.6 -97.9,45c-5.7,7.00001 -14.1,22.30001 -14.1,25.60001c0,4.2 -1.7,0.7 -2.4,-4.8c-2.1,-18 -8.4,-41.00001 -14.9,-54.30001c-5.2,-10.5 -15.2,-21.1 -24.1,-25.5c-12.1,-5.9 -24.6,-3.1 -34.2,7.9c-8.5,9.8 -14,25.4 -13.1,37.3c0.8,10.2 5.6,16.10001 14,17.00001l4.5,0.5l2,-4.30001c3.2,-7.1 6.3,-9.4 13,-9.3c19.4,0.2 36.9,27.50001 29,45.00001c-1.9,4 -10.1,7.3 -22.8,9c-6.3,0.8 -16.2,2.2 -21.9,3c-10.7,1.4 -15.1,3.2 -15.1,6.1c0,2.7 8.8,10.1 16.8,14.1c9,4.4 19.1,5.5 25.6,2.8c2.8,-1.1 3.7,-1.2 3.3,-0.3c-0.2,0.7 -1.5,5 -2.8,9.6l-2.4,8.3l-9,7.8c-28.9,24.8 -50.2,37.5 -72,43c-7.8,1.9 -10.7,2.2 -22.5,1.8c-14.40001,-0.6 -24.40001,-3 -35.50001,-8.6c-31.9,-16 -49.7,-54.3 -55.5,-119.7c-0.5,-6.1 -1.4,-19.70001 -2,-30.30001l-1.1,-19.3l8.8,-10.1l8.8,-10.1l0.6,4.9c0.9,7 4.8,14.1 11.1,20.1c6,5.6 16.8,11.6 20.1,11.1c3.8,-0.5 2.9,-9.7 -2.5,-26.8c-6.4,-19.9 -6.8,-21.7 -6.8,-28.4c0,-5.4 0.3,-6.1 3.5,-9.2c4.3,-4 13,-7.4 19.3,-7.4c11.3,0 23.8,5.7 29.30001,13.3c5.2,7.1 4.8,14.6 -1.1,20.2l-2.9,2.8l2,3.9c3,5.8 7.1,8 14.4,7.6c17.9,-1.1 37.5,-23 37.6,-42.3c0.1,-15.7 -12.2,-27.7 -33.1,-32.1c-13.7,-2.9 -38.40001,-0.2 -62.70001,7l-8.3,2.4l5,-5.5c6.7,-7.3 10.4,-12.8 14.5,-21.6c8,-16.8 11.7,-41.6 9.5,-63.9c-1.6,-17.5 -7.2,-43.9 -9.3,-44c-2,0 -22.4,18.1 -30,26.7c-25.3,28.3 -37.3,56.8 -35.3,83.8l0.6,9l-8.1,-10.9c-4.5,-6 -13.4,-16.1 -19.8,-22.5c-16.7,-16.6 -27.8,-22.7 -43.4,-23.7c-10.9,-0.7 -15.9,1 -22.3,7.2c-7.2,7.1 -9.6,13.9 -9.7,27.1c-0.2,15.5 4.8,28.4 13.4,34.7c3.2,2.4 10.3,2.7 14.4,0.6c2.8,-1.5 3,-2 3,-7.6c0,-6.9 1.9,-10.3 7.5,-13.4c5.4,-3 18.5,-2.1 26.5,1.7c11,5.3 19.4,16.1 19.5,25.1c0,6.8 -5.1,12 -24.5,25.4c-6.6,4.5 -13.7,9.9 -15.7,11.8c-8.2,7.8 -3.3,11.6 14.7,11.7c12.7,0 18.1,-1.8 24.7,-8.3c2.1,-2 3.8,-3.2 3.8,-2.7c0,0.6 0.5,6.1 1,12.4l0.9,11.5l-6.3,8.6c-17.7,24.2 -41.8,50.20001 -57.6,62.20001c-23.2,17.6 -43.9,23.6 -61.2,17.7c-50,-16.8 -88.6,-76.20001 -113.2,-174.40001c-2.9,-11.6 -6.1,-25.4 -7.1,-30.7l-1.9,-9.7l2.9,-7.3c1.6,-4 3.7,-9.3 4.8,-11.6l1.9,-4.4l2,4.1c2.8,5.7 11.7,13.6 18.1,15.9c7.2,2.7 17.1,4.6 20.2,3.8c2.1,-0.5 2.5,-1.2 2.5,-4.1c0,-3.6 -2.7,-8.1 -15.3,-25c-7.6,-10.2 -13.7,-21.5 -13.7,-25.4c0,-4.8 6.9,-13 14,-16.6c22.1,-11.3 50.4,2.2 41.4,19.7c-1.2,2.3 -1.3,3.6 -0.5,5.4c1.2,2.8 7.9,6.4 11.7,6.4c7.7,0 18.4,-9.5 24.2,-21.5c11.4,-23.4 5.4,-44.4 -14.6,-50.5c-8.6,-2.7 -21.3,-2.7 -31.2,0c-10.2,2.8 -31,13.2 -45,22.4c-6.3,4.2 -11.6,7.6 -11.7,7.6c-0.2,0 0.3,-1 1.1,-2.3c2.9,-4.4 7.6,-20.5 8.6,-29.7c2.4,-21.4 -3.2,-47.2 -15.9,-73.6c-6.2,-12.8 -15.6,-28.4 -17.2,-28.4c-0.6,0 -3.7,4.2 -7,9.2zm-407.10001,663.00001l-0.3,5.2l-3,-4.5l-2.9,-4.4l-1.4,7.8l-1.4,7.8l-4.7,-0.6c-2.5,-0.3 -6.1,-0.8 -8,-1.1c-3.2,-0.5 -3.4,-0.4 -2.1,1.3c0.8,1 3.2,3.7 5.4,6.1l4.1,4.3l-5.7,5.5l-5.6,5.4l15.7,0l0.6,3.5c0.3,1.9 0.8,5.2 1.1,7.2l0.6,3.8l1.9,-2.3c1,-1.3 2.7,-3.6 3.8,-5l2,-2.7l0.1,7.7l0,7.8l827.90002,0l0.3,-7.8l0.3,-7.7l3.6,7.5l3.6,7.5l2.3,-7c1.2,-3.9 2.4,-7.3 2.6,-7.6c0.2,-0.4 3.2,-0.1 6.6,0.7c3.5,0.7 6.9,1.3 7.6,1.4c0.7,0 -0.6,-2.7 -2.9,-6.2l-4.2,-6.1l3.4,-2.9c1.9,-1.5 4.6,-3.6 6.2,-4.5c1.5,-1 2.7,-2.1 2.7,-2.5c0,-0.4 -3.5,-0.8 -7.7,-1l-7.8,-0.3l0.1,-7.8l0.2,-7.9l-5.8,5.7l-5.8,5.7l-2.6,-1.7c-2.4,-1.6 -2.6,-2.3 -2.6,-8.6l0,-6.9l-827.90002,0l-0.3,5.2z" stroke-width="10" fill="#ffdc34" stroke="#7f3f00" id="svg_2" />
    </g>
</svg>