<svg width="1440" height="900" viewBox="0 0 1440 900" fill="none" xmlns="http://www.w3.org/2000/svg">
<g opacity="0.98">
<path d="M675.186 349.016C675.186 351.479 673.19 353.475 670.727 353.475C668.265 353.475 666.268 351.479 666.268 349.016C666.268 346.554 668.265 344.557 670.727 344.557C673.19 344.557 675.186 346.554 675.186 349.016Z" fill="black" fill-opacity="0.07"/>
<path d="M777.744 335.639C777.744 338.102 775.747 340.098 773.285 340.098C770.822 340.098 768.826 338.102 768.826 335.639C768.826 333.177 770.822 331.18 773.285 331.18C775.747 331.18 777.744 333.177 777.744 335.639Z" fill="black" fill-opacity="0.07"/>
<path d="M666.715 335.639C667.912 335.594 669.038 335.062 669.837 334.168C670.594 333.275 670.993 332.13 670.951 330.958L668.454 286.412C668.343 284.62 667.17 283.07 665.476 282.477C663.782 281.885 661.898 282.364 660.694 283.697C659.891 284.581 659.488 285.756 659.58 286.947L662.033 331.453C662.177 333.808 664.13 335.644 666.492 335.639H666.715Z" fill="black" fill-opacity="0.07"/>
<path d="M772.838 326.721C771.641 326.676 770.515 326.144 769.718 325.25C768.958 324.357 768.56 323.212 768.604 322.04L771.101 277.494C771.21 275.702 772.383 274.152 774.077 273.559C775.771 272.967 777.654 273.446 778.858 274.779C779.662 275.663 780.065 276.838 779.973 278.029L777.522 322.534C777.378 324.89 775.423 326.726 773.063 326.721H772.838Z" fill="black" fill-opacity="0.07"/>
<path d="M672.646 264.295C672.646 266.758 670.649 268.754 668.187 268.754C665.724 268.754 663.728 266.758 663.728 264.295C663.728 261.833 665.724 259.836 668.187 259.836C670.649 259.836 672.646 261.833 672.646 264.295Z" fill="black" fill-opacity="0.07"/>
<path d="M771.68 347.323C769.32 346.652 766.855 347.974 766.106 350.31C763.716 358.161 759.374 365.281 753.487 371C749.566 374.791 745.046 377.911 740.11 380.23C739.032 380.715 738.196 381.616 737.791 382.727C737.388 383.829 737.436 385.043 737.924 386.11C738.976 388.335 741.612 389.309 743.855 388.301C758.693 381.416 769.897 368.542 774.667 352.896C775.36 350.534 774.029 348.052 771.68 347.323V347.323Z" fill="black" fill-opacity="0.07"/>
<path d="M719.866 384.689H719.776C711.57 384.689 703.499 382.603 696.323 378.625C691.548 375.966 687.255 372.529 683.614 368.453C681.936 366.704 679.19 366.55 677.327 368.1C676.434 368.882 675.903 369.994 675.855 371.179C675.763 372.354 676.168 373.517 676.97 374.384C687.832 386.62 703.414 393.617 719.776 393.607C722.239 393.63 724.255 391.656 724.281 389.191C724.305 386.729 722.328 384.712 719.866 384.689Z" fill="black" fill-opacity="0.07"/>
<path d="M761.826 264.295C761.826 266.758 759.829 268.754 757.367 268.754C754.904 268.754 752.908 266.758 752.908 264.295C752.908 261.833 754.904 259.836 757.367 259.836C759.829 259.836 761.826 261.833 761.826 264.295Z" fill="black" fill-opacity="0.07"/>
<path d="M686.022 268.754H730.613C733.075 268.754 735.072 266.758 735.072 264.295C735.072 261.833 733.075 259.836 730.613 259.836H686.022C683.56 259.836 681.563 261.833 681.563 264.295C681.563 266.758 683.56 268.754 686.022 268.754Z" fill="black" fill-opacity="0.07"/>
<path d="M741.689 353.641C743.25 352.504 743.903 350.495 743.306 348.659L736.944 329.04L753.611 316.93C755.155 315.787 755.795 313.786 755.201 311.962C754.606 310.137 752.91 308.898 750.99 308.885H730.384L724.018 289.288C723.417 287.459 721.708 286.222 719.781 286.222C717.854 286.222 716.147 287.459 715.546 289.288L709.169 308.885H688.563C686.632 308.885 684.919 310.128 684.322 311.966C683.726 313.804 684.379 315.815 685.942 316.952L702.609 329.062L696.247 348.681C695.653 350.519 696.308 352.528 697.869 353.663C699.432 354.797 701.546 354.797 703.11 353.663L719.777 341.533L736.446 353.641C738.009 354.777 740.125 354.777 741.689 353.641ZM729.073 323.765C727.515 324.901 726.864 326.911 727.46 328.746L730.58 338.367L722.394 332.424C720.83 331.287 718.714 331.287 717.151 332.424L708.969 338.359L712.089 328.742C712.687 326.904 712.032 324.892 710.471 323.756L702.285 317.803H712.411C714.342 317.803 716.054 316.56 716.65 314.722L719.777 305.095L722.899 314.722C723.495 316.56 725.207 317.803 727.138 317.803H737.264L729.073 323.765Z" fill="black" fill-opacity="0.07"/>
<path d="M829.804 270.03C826.427 266.381 821.685 264.304 816.716 264.295H799.052L799.771 251.412C799.908 248.963 799.028 246.566 797.341 244.785C795.654 243.004 793.307 241.996 790.853 242H648.687C646.233 241.996 643.886 243.004 642.199 244.785C640.511 246.566 639.632 248.963 639.769 251.412L640.5 264.295H622.839C617.85 264.304 613.095 266.394 609.718 270.065C606.344 273.733 604.654 278.645 605.059 283.616L611.748 363.878C612.571 373.097 620.269 380.179 629.527 380.23H658.818C670.205 395.999 687.259 406.742 706.399 410.204V442.656H693.022C690.56 442.656 688.563 444.652 688.563 447.115V469.41H675.186C673.14 469.41 671.356 470.803 670.862 472.789L661.944 508.461C661.611 509.794 661.912 511.204 662.756 512.287C663.601 513.366 664.897 514 666.268 514H773.285C774.656 514 775.954 513.366 776.799 512.287C777.643 511.204 777.942 509.794 777.611 508.461L768.693 472.789C768.196 470.803 766.413 469.41 764.367 469.41H750.99V447.115C750.99 444.652 748.993 442.656 746.531 442.656H733.153V410.204C752.294 406.742 769.348 395.999 780.735 380.23H810.028C819.283 380.179 826.982 373.097 827.805 363.878L834.494 283.616C834.89 278.632 833.19 273.707 829.804 270.03V270.03ZM629.527 371.311C624.9 371.285 621.051 367.747 620.64 363.138L613.951 282.876C613.753 280.392 614.598 277.938 616.285 276.105C617.97 274.271 620.346 273.222 622.839 273.213H640.995L644.726 340.451C645.34 351.242 648.284 361.769 653.359 371.311H629.527ZM767.574 505.082H671.981L678.67 478.328H760.885L767.574 505.082ZM742.072 469.41H697.481V451.574H742.072V469.41ZM724.235 411.443V442.656H715.317V411.443H724.235ZM719.776 402.525C684.625 402.514 655.598 375.054 653.636 339.955L648.687 250.918H790.866L785.917 339.955C783.955 375.054 754.93 402.514 719.776 402.525V402.525ZM818.913 363.134C818.504 367.743 814.655 371.285 810.028 371.311H786.215C791.291 361.769 794.236 351.242 794.848 340.451L798.558 273.213H816.716C819.207 273.222 821.583 274.269 823.27 276.102C824.957 277.938 825.802 280.392 825.602 282.876L818.913 363.134Z" fill="black" fill-opacity="0.07"/>
<path d="M728.694 487.246H684.104C681.642 487.246 679.645 489.242 679.645 491.705C679.645 494.167 681.642 496.164 684.104 496.164H728.694C731.157 496.164 733.153 494.167 733.153 491.705C733.153 489.242 731.157 487.246 728.694 487.246Z" fill="black" fill-opacity="0.07"/>
<path d="M759.908 491.705C759.908 494.167 757.911 496.164 755.449 496.164C752.986 496.164 750.99 494.167 750.99 491.705C750.99 489.242 752.986 487.246 755.449 487.246C757.911 487.246 759.908 489.242 759.908 491.705Z" fill="black" fill-opacity="0.07"/>
</g>
<path d="M942.773 520.276C939.12 520.96 936.138 523.247 936.138 526.91C936.138 530.575 939.109 533.544 942.773 533.544C944.585 533.544 946.331 533.262 947.977 532.748C946.434 528.69 945.254 524.399 944.433 519.943C944.433 519.943 943.189 520.198 942.773 520.276Z" fill="black" fill-opacity="0.07"/>
<path d="M1018.87 579.589C1017 574.696 1016.32 570.553 1016.32 570.553C1015.91 568.033 1013.56 566.543 1011.11 567.243C1011.11 567.243 1003.81 569.324 997.501 569.324C991.2 569.324 983.904 567.246 983.904 567.246C981.448 566.547 979.101 568.037 978.691 570.557C978.691 570.557 978.052 574.475 976.24 579.309C975.033 582.529 974.359 583.639 974.359 583.639C973.034 585.822 974.04 587.608 976.594 587.608H1018.41C1020.96 587.608 1021.96 585.825 1020.64 583.642C1020.64 583.642 1020.05 582.688 1018.87 579.589Z" fill="black" fill-opacity="0.07"/>
<path d="M1036.69 450H958.307C955.027 450 952.367 452.663 952.367 455.948V505.019C952.367 520.379 956.929 534.36 965.211 544.387C973.547 554.479 985.016 560.037 997.501 560.037C1009.99 560.037 1021.46 554.479 1029.79 544.387C1038.07 534.36 1042.64 520.379 1042.64 505.019V455.948C1042.63 452.663 1039.97 450 1036.69 450Z" fill="black" fill-opacity="0.07"/>
<path d="M943.08 498.385H931.827C923.413 498.385 916.569 491.541 916.569 483.127C916.569 474.714 923.413 467.87 931.827 467.87C936.277 467.87 940.288 469.785 943.079 472.836V456.919C939.625 455.43 935.821 454.602 931.827 454.602C916.098 454.602 903.301 467.399 903.301 483.127C903.301 498.856 916.098 511.652 931.827 511.652H943.344C943.17 509.454 943.08 507.27 943.08 505.019V498.385V498.385Z" fill="black" fill-opacity="0.07"/>
<path d="M1051.66 511.652H1063.17C1078.9 511.652 1091.7 498.857 1091.7 483.127C1091.7 467.399 1078.9 454.602 1063.17 454.602C1059.18 454.602 1055.38 455.43 1051.92 456.919V472.835C1054.71 469.785 1058.72 467.869 1063.17 467.869C1071.59 467.869 1078.43 474.714 1078.43 483.126C1078.43 491.54 1071.59 498.384 1063.17 498.384H1051.92V505.018C1051.92 507.27 1051.83 509.454 1051.66 511.652Z" fill="black" fill-opacity="0.07"/>
<path d="M942.773 596.896C939.109 596.896 936.138 599.866 936.138 603.529V636.367C936.138 640.03 939.109 643 942.773 643H1052.23C1055.89 643 1058.86 640.03 1058.86 636.367V603.529C1058.86 599.866 1055.89 596.896 1052.23 596.896H942.773Z" fill="black" fill-opacity="0.07"/>
<path d="M1050.57 519.943C1049.75 524.399 1048.57 528.69 1047.02 532.748C1048.67 533.261 1050.42 533.544 1052.23 533.544C1055.89 533.544 1058.86 530.575 1058.86 526.91C1058.86 523.247 1056.11 521.003 1052.23 520.276C1051.77 520.191 1050.57 519.943 1050.57 519.943Z" fill="black" fill-opacity="0.07"/>
<path d="M533.249 638.103L511.092 575.171C508.788 575.892 506.406 576.395 503.928 576.395C502.498 576.395 501.087 576.27 499.695 576.019C498.052 581.181 494.73 585.578 490.331 588.565L480.212 617.292L492.584 652.418C492.923 653.362 493.808 653.998 494.815 654C495.811 654.007 496.702 653.384 497.051 652.443L505.423 629.479C505.661 628.813 506.188 628.291 506.852 628.056C507.524 627.82 508.264 627.897 508.868 628.263L529.787 640.918C530.648 641.431 531.735 641.358 532.51 640.726C533.286 640.094 533.58 639.046 533.249 638.103Z" fill="black" fill-opacity="0.07"/>
<path d="M445.514 587.798C441.459 587.798 437.435 586.76 433.886 584.796C433.544 584.607 433.246 584.372 432.916 584.17L419.101 623.39C418.77 624.331 419.071 625.381 419.846 626.013C420.279 626.365 420.805 626.544 421.342 626.544C421.764 626.544 422.184 626.432 422.563 626.202L443.481 613.551C443.86 613.325 444.287 613.209 444.715 613.209C444.977 613.209 445.24 613.255 445.497 613.343C446.162 613.578 446.694 614.101 446.932 614.767L455.298 637.731C455.64 638.668 456.532 639.288 457.528 639.288C457.528 639.288 457.535 639.288 457.541 639.288C458.541 639.282 459.427 638.649 459.764 637.707L475.65 592.599C468.901 592.274 462.623 589.213 458.34 584.095C454.53 586.504 450.102 587.798 445.514 587.798Z" fill="black" fill-opacity="0.07"/>
<path d="M517.548 511.373C515.026 510.608 513.004 508.728 512.057 506.276C511.115 503.823 511.353 501.072 512.709 498.818L512.716 498.809C515.301 494.522 514.824 489.059 511.537 485.284C509.297 482.713 506.101 481.326 502.834 481.326C501.308 481.326 499.762 481.629 498.296 482.258C497.222 482.719 496.079 482.948 494.943 482.948C493.513 482.948 492.097 482.591 490.814 481.883C488.519 480.612 486.93 478.346 486.527 475.75L486.52 475.742C485.745 470.798 481.868 466.919 476.924 466.141C476.32 466.046 475.723 466 475.123 466C470.83 466 466.824 468.403 464.839 472.331C463.649 474.682 461.443 476.349 458.866 476.85C458.323 476.957 457.779 477.008 457.236 477.008C455.194 477.008 453.204 476.275 451.635 474.91C449.478 473.033 446.772 472.067 444.049 472.067C442.003 472.067 439.946 472.611 438.106 473.719C433.819 476.3 431.689 481.351 432.829 486.234C433.429 488.793 432.817 491.486 431.163 493.529C429.538 495.535 427.101 496.692 424.528 496.692C424.474 496.692 424.425 496.692 424.371 496.692C424.297 496.692 424.223 496.69 424.152 496.69C419.235 496.69 414.849 499.813 413.242 504.477C411.618 509.209 413.231 514.45 417.237 517.451L417.249 517.461C419.356 519.036 420.614 521.495 420.657 524.121C420.707 526.747 419.54 529.251 417.488 530.909C413.591 534.055 412.175 539.35 413.97 544.02C415.686 548.49 419.98 551.409 424.732 551.409C424.944 551.409 425.165 551.404 425.379 551.391C425.537 551.382 425.689 551.379 425.843 551.379C428.304 551.379 430.649 552.442 432.273 554.305C433.996 556.286 434.684 559.096 434.183 561.676C433.227 566.587 435.559 571.431 439.939 573.852C441.686 574.82 443.603 575.29 445.514 575.29C448.379 575.29 451.219 574.221 453.413 572.163C455.006 570.67 457.088 569.857 459.238 569.857C459.685 569.857 460.124 569.891 460.57 569.961C463.166 570.367 465.426 571.952 466.695 574.255L466.702 574.263C468.76 577.983 472.662 580.218 476.797 580.218C477.531 580.218 478.269 580.147 479.008 580.005C483.918 579.042 487.651 575.024 488.25 570.052C488.56 567.438 490.063 565.118 492.31 563.761C493.654 562.953 495.174 562.54 496.709 562.54C497.739 562.54 498.779 562.73 499.768 563.111L499.779 563.114C501.13 563.634 502.535 563.887 503.927 563.887C507.335 563.887 510.658 562.37 512.892 559.606C516.045 555.712 516.32 550.237 513.577 546.037C512.135 543.835 511.793 541.097 512.648 538.611C513.503 536.125 515.458 534.171 517.943 533.319C522.683 531.694 525.829 527.203 525.738 522.197C525.645 517.192 522.335 512.82 517.548 511.373ZM469.187 558.193C449.84 558.193 434.094 542.453 434.094 523.105C434.094 503.756 449.841 488.014 469.187 488.014C488.536 488.014 504.276 503.756 504.276 523.105C504.276 542.453 488.536 558.193 469.187 558.193Z" fill="black" fill-opacity="0.07"/>
<path d="M469.187 500.522C456.734 500.522 446.602 510.652 446.602 523.105C446.602 535.555 456.734 545.684 469.187 545.684C481.641 545.684 491.767 535.555 491.767 523.105C491.766 510.652 481.641 500.522 469.187 500.522Z" fill="black" fill-opacity="0.07"/>
<path d="M487.264 476.431H485.849V475.085H487.264V476.431ZM486.034 476.247H487.08V475.27H486.034V476.247Z" fill="black" fill-opacity="0.07"/>
</svg>
