<svg width="665" height="665" viewBox="0 0 665 665" fill="none" xmlns="http://www.w3.org/2000/svg">
<path d="M626.797 332.104C626.797 287.46 616.661 243.399 597.153 203.243C577.645 163.087 549.275 127.884 514.181 100.289C479.087 72.6945 438.186 53.4277 394.561 43.9417C350.937 34.4557 308.325 34.5546 264.941 45.0847L270.228 68.954C235.67 77.0531 203.047 91.8794 174.219 112.587C145.392 133.294 120.925 159.476 102.216 189.639C83.5077 219.801 70.9231 253.354 65.1811 288.38C59.4392 323.406 60.6524 359.22 68.7515 393.777L92.5925 387.623C83.1651 346.988 84.2403 304.621 95.7169 264.516C107.194 224.411 128.693 187.889 158.19 158.393L175.596 175.799C201.27 150.125 232.872 131.171 267.61 120.611C302.348 110.051 339.152 108.21 374.771 115.252C410.389 122.293 443.725 138 471.832 160.983C499.938 183.967 523.218 216.869 537.191 250.38L509.586 260.661C521.116 289.334 525.534 320.373 522.465 351.125L483.155 348.361C480.384 374.144 471.068 398.79 456.093 419.959C441.117 441.128 420.979 458.118 397.591 469.315C374.202 480.512 348.339 485.545 322.459 483.936C296.578 482.326 271.538 474.128 249.717 460.119L262.505 433.156C279.156 444.591 298.373 451.733 318.449 453.95L329.159 410.334C312.528 409.751 296.515 403.883 283.445 393.581C270.375 383.279 260.929 369.081 256.477 353.046C252.025 337.01 252.799 319.974 258.687 304.409C264.575 288.843 275.27 275.56 289.22 266.486L303.946 292.179C309.189 288.508 315.104 285.906 321.353 284.52C327.601 283.135 334.062 282.994 340.365 284.105C346.668 285.217 352.691 287.559 358.089 290.998C363.487 294.437 368.155 298.905 371.826 304.148" stroke="#ffa800" stroke-opacity=".1"/>
<path d="M626.583 343.219C624.828 389.724 612.092 435.153 589.416 475.792C566.74 516.431 534.767 551.127 496.113 577.042C457.458 602.957 413.219 619.356 367.013 624.897C320.806 630.439 273.944 624.966 230.258 608.926L239.795 586.203C185.864 566.655 139.551 530.455 107.557 482.841C75.5636 435.227 59.5489 378.669 61.8304 321.35L86.4078 322.812C87.8734 284.072 98.487 246.228 117.381 212.375C136.275 178.522 162.912 149.621 195.116 128.036C227.319 106.45 264.174 92.7925 302.667 88.1797C341.16 83.567 380.199 88.1299 416.59 101.495L408.205 124.347C435.563 134.054 458.345 148.48 479.906 167.917C501.467 187.353 518.988 210.847 531.47 237.055C543.951 263.263 551.148 291.673 552.65 320.663C554.152 349.653 549.929 378.654 540.223 406.012L511.995 397.221C496.272 440.703 465.349 477.029 424.934 499.492C384.519 521.955 337.341 529.037 292.112 519.431C246.883 509.826 206.656 484.181 178.859 447.232C151.061 410.283 137.571 364.524 140.877 318.405L180.4 318.288C178.221 342.196 181.73 366.28 190.642 388.572C199.554 410.863 213.615 430.729 231.676 446.545C249.736 462.361 271.284 473.678 294.556 479.57C317.829 485.463 345.247 484.885 368.658 479.57L362.936 450.691C378.51 446.615 393.128 439.511 405.957 429.785C418.785 420.06 429.572 407.903 437.702 394.008C445.832 380.113 451.146 364.754 453.339 348.806C455.533 332.858 454.565 316.634 450.488 301.06C446.412 285.486 439.308 270.868 429.583 258.04C419.857 245.211 407.7 234.424 393.805 226.294C379.911 218.164 364.551 212.851 348.603 210.657C332.655 208.463 316.431 209.432 300.857 213.508L309.024 257.238C318.855 254.234 329.181 253.196 339.413 254.183C349.645 255.17 359.583 258.163 368.658 262.99C377.734 267.818 385.77 274.386 392.307 282.319C398.844 290.252 403.755 299.395 406.759 309.226L378.506 317.849C381.516 327.692 381.332 338.235 377.981 347.967" stroke="#ffa800" stroke-opacity=".1"/>
<path d="M41.2859 382.189C29.0998 311.488 43.1057 238.769 80.6805 177.652C118.255 116.535 176.822 71.2114 245.411 50.1707L251.649 73.639C316.424 55.3845 392.613 60.2649 452.802 90.3692C512.991 120.473 559.784 171.949 584.028 234.728L561.109 243.709C575.058 279.881 580.248 318.841 576.255 357.404C572.262 395.966 559.198 433.036 538.133 465.582C517.068 498.129 488.6 525.227 455.055 544.663C421.51 564.099 383.842 575.319 345.129 577.408V553.153C311.903 554.079 271.825 547.411 241.493 533.817C211.161 520.223 184.285 499.963 162.866 474.546C141.446 449.129 126.034 419.209 117.777 387.012C109.52 354.814 108.63 321.17 115.174 288.581L144.123 294.455C149.067 269.796 158.819 246.352 172.823 225.462C186.826 204.572 204.808 186.645 225.74 172.704C246.672 158.764 270.145 149.082 294.818 144.213C319.492 139.344 344.883 139.382 369.542 144.326L359.97 182.587C328.868 176.747 296.719 180.752 268 194.044C239.282 207.336 215.423 229.253 199.747 256.744L223.615 274.634C236.737 249.907 257.926 230.417 283.661 219.402C309.395 208.388 338.124 206.512 365.072 214.088C392.02 221.663 415.564 238.234 431.789 261.044C448.015 283.855 455.945 311.531 454.261 339.473L409.926 338.329C408.75 353.061 403.428 367.16 394.574 378.993C385.721 390.826 373.698 399.912 359.897 405.198L348.866 377.789C340.574 380.869 331.6 381.634 322.907 380.002C314.213 378.371 306.127 374.404 299.516 368.527C292.905 362.651 288.018 355.086 285.378 346.643C282.739 338.201 282.447 329.199 284.533 320.603" stroke="#ffa800" stroke-opacity=".1"/>
</svg>
