<svg width="1440" height="900" viewBox="0 0 1440 900" fill="none" xmlns="http://www.w3.org/2000/svg">
<g clip-path="url(#clip0)">
<path d="M1268.63 42.7471L1302.47 44.2149C1302.76 44.2268 1302.98 44.211 1303.09 44.203L1303.24 44.0951C1303.54 43.8851 1304.14 43.8615 1304.59 43.8812L1310.72 44.1501C1311.43 44.1776 1312.35 44.5953 1312.85 45.1194L1313.26 45.561C1313.62 45.9357 1314.31 46.4419 1314.78 46.6676L1318.31 48.3767C1318.62 48.5337 1319.05 48.7514 1319.39 48.8495L1319.62 48.8887C1319.65 48.8926 1319.69 48.9045 1319.72 48.9045C1320.19 48.8965 1320.76 48.6907 1321.35 48.2981C1321.91 47.9292 1322.86 47.631 1323.6 47.7548L1336.96 50.0113C1338.14 50.2134 1338.99 51.1887 1339.17 52.3286L1346.68 53.6493C1347.52 53.1841 1348.48 52.8937 1349.51 52.8937H1360.16C1363.42 52.8937 1366.05 55.5309 1366.05 58.7804V86.1628L1377.79 128.931C1378.65 132.066 1376.81 135.304 1373.67 136.164C1373.15 136.309 1372.62 136.377 1372.11 136.377C1369.52 136.377 1367.15 134.66 1366.44 132.047L1355.81 93.3347H1353.98L1344.13 131.943C1343.45 134.602 1341.06 136.377 1338.43 136.377C1337.95 136.377 1337.46 136.317 1336.97 136.193C1333.82 135.389 1331.92 132.184 1332.72 129.035L1343.63 86.2745V65.0691L1316.3 60.2618C1313.1 59.6985 1310.96 56.6474 1311.52 53.4432C1311.57 53.1254 1311.67 52.8231 1311.78 52.5287C1311.74 52.4757 1311.66 52.4482 1311.63 52.3894C1311.28 52.5012 1310.9 52.558 1310.52 52.5424C1309.79 52.511 1309.11 52.2402 1308.6 51.7752C1308.07 51.2885 1307.8 50.6528 1307.83 49.9857C1307.83 49.8738 1307.86 49.768 1307.88 49.66L1303.3 49.0124L1269.06 46.4027C1268.13 46.3342 1267.52 45.9121 1267.54 45.3529C1267.55 45.1762 1267.61 45.0115 1267.71 44.8701C1267.27 44.6719 1266.98 44.2676 1267 43.8125C1267.03 43.1867 1267.77 42.7079 1268.63 42.7471ZM1309.32 50.9981C1309.64 51.2965 1310.09 51.469 1310.57 51.4926C1310.9 51.5043 1311.21 51.4161 1311.48 51.2885C1311.52 51.1432 1311.55 50.9981 1311.63 50.8627L1311.94 50.3269C1311.57 50.219 1311.19 50.1268 1310.9 50.0856L1308.92 49.8051C1308.9 49.8777 1308.88 49.9543 1308.88 50.0308C1308.86 50.384 1309.02 50.7254 1309.32 50.9981Z" fill="#8F8505" fill-opacity="0.06"/>
<path d="M1354.84 48.1158C1349.56 48.1158 1345.28 43.8366 1345.28 38.5579C1345.28 33.2792 1349.56 29 1354.84 29C1360.12 29 1364.4 33.2792 1364.4 38.5579C1364.4 43.8366 1360.12 48.1158 1354.84 48.1158Z" fill="#8F8505" fill-opacity="0.06"/>
<path d="M914.626 502.747L948.474 504.215C948.764 504.227 948.98 504.211 949.088 504.203L949.241 504.095C949.536 503.885 950.138 503.862 950.593 503.881L956.715 504.15C957.433 504.178 958.352 504.595 958.846 505.119L959.262 505.561C959.617 505.936 960.312 506.442 960.777 506.668L964.309 508.377C964.619 508.534 965.049 508.751 965.394 508.849L965.623 508.889C965.653 508.893 965.688 508.904 965.716 508.904C966.192 508.896 966.758 508.691 967.354 508.298C967.907 507.929 968.859 507.631 969.599 507.755L982.963 510.011C984.139 510.213 984.994 511.189 985.169 512.329L992.68 513.649C993.524 513.184 994.48 512.894 995.512 512.894H1006.16C1009.42 512.894 1012.05 515.531 1012.05 518.78V546.163L1023.79 588.931C1024.65 592.066 1022.81 595.304 1019.67 596.164C1019.15 596.309 1018.62 596.377 1018.11 596.377C1015.52 596.377 1013.15 594.66 1012.44 592.047L1001.81 553.335H999.976L990.131 591.943C989.452 594.602 987.059 596.377 984.431 596.377C983.95 596.377 983.46 596.317 982.973 596.193C979.822 595.389 977.921 592.184 978.723 589.035L989.625 546.274V525.069L962.3 520.262C959.097 519.698 956.957 516.647 957.52 513.443C957.575 513.125 957.675 512.823 957.779 512.529C957.738 512.476 957.661 512.448 957.628 512.389C957.276 512.501 956.904 512.558 956.521 512.542C955.791 512.511 955.11 512.24 954.604 511.775C954.074 511.288 953.795 510.653 953.827 509.986C953.833 509.874 953.858 509.768 953.884 509.66L949.298 509.012L915.057 506.403C914.127 506.334 913.517 505.912 913.543 505.353C913.55 505.176 913.609 505.011 913.709 504.87C913.266 504.672 912.981 504.268 913.001 503.813C913.029 503.187 913.769 502.708 914.626 502.747ZM955.318 510.998C955.642 511.296 956.085 511.469 956.57 511.493C956.902 511.504 957.206 511.416 957.482 511.288C957.518 511.143 957.549 510.998 957.63 510.863L957.944 510.327C957.575 510.219 957.188 510.127 956.898 510.086L954.918 509.805C954.898 509.878 954.883 509.954 954.881 510.031C954.865 510.384 955.018 510.725 955.318 510.998Z" fill="#8F8505" fill-opacity="0.06"/>
<path d="M1000.84 508.116C995.561 508.116 991.281 503.837 991.281 498.558C991.281 493.279 995.561 489 1000.84 489C1006.12 489 1010.4 493.279 1010.4 498.558C1010.4 503.837 1006.12 508.116 1000.84 508.116Z" fill="#8F8505" fill-opacity="0.06"/>
<path d="M84.7333 538.122C109.067 538.122 128.794 518.395 128.794 494.061C128.794 469.727 109.067 450 84.7333 450C60.3991 450 40.6724 469.727 40.6724 494.061C40.6724 518.395 60.3991 538.122 84.7333 538.122Z" fill="#8F8505" fill-opacity="0.06"/>
<path d="M421.834 600.473C411.278 596.023 399.98 590.152 390.863 583.758C386.765 580.899 385.109 582.047 386.837 586.724L389.867 594.974L354.526 595.182C347.678 466.419 230.801 454.334 229.588 454.225C222.171 453.575 215.523 459.047 214.853 466.519C214.184 473.972 219.683 480.584 227.146 481.254C231.107 481.607 321.003 490.977 327.344 595.336L254.166 595.77C250.728 584.717 240.543 576.639 228.368 576.639H134.24C130.089 566.96 120.483 560.175 109.293 560.175H61.8126L0.981083 529.773C-12.4333 523.079 -28.7337 528.498 -35.4272 541.912C-42.1292 555.326 -36.7023 571.609 -23.2974 578.32L33.0475 606.479V713.524L-21.0631 910.674C-25.0342 925.127 -16.5311 940.053 -2.07714 944.033C0.32933 944.684 2.74432 945.001 5.12336 945.001C17.0365 945.001 27.964 937.086 31.2748 925.037L80.2565 746.578H88.7142L134.096 924.558C137.226 936.833 148.261 945.001 160.373 945.001C162.589 945.001 164.85 944.739 167.093 944.151C181.611 940.46 190.386 925.67 186.685 911.152L136.428 714.031V630.921H228.367C239.783 630.921 249.507 623.866 253.523 613.871C269.408 613.78 299.067 613.609 327.38 613.437C323.644 705.132 241.329 732.512 237.774 733.633C230.619 735.841 226.621 743.457 228.837 750.612C230.647 756.428 236.002 760.155 241.791 760.155C243.12 760.155 244.477 759.964 245.816 759.558C246.892 759.232 350.97 725.519 354.679 613.282C369.604 613.192 382.368 613.12 389.974 613.074L387.026 621.342C385.352 626.054 387.035 627.176 391.096 624.254C400.141 617.769 411.368 611.78 421.87 607.186C426.456 605.186 426.438 602.418 421.834 600.473Z" fill="#8F8505" fill-opacity="0.06"/>
<path d="M1063.67 822.724C1063.67 822.724 1055.21 829.902 1060.94 846.526C1061.22 850.86 1059.02 854.957 1056.85 855.779C1054.66 856.599 1048.72 875.141 1057.18 900H1067.13C1067.13 900 1060 886.103 1063.66 872.438C1067.3 858.783 1083.94 844.452 1083.94 844.452C1091.59 848.549 1097.47 846.761 1107.31 845.401C1109.77 852.774 1114.42 858.755 1115.23 861.365C1116.05 863.969 1114.42 875.449 1126.43 900H1137.43C1137.43 900 1120.22 871.155 1130.88 846.526C1132.24 844.858 1145.08 836.112 1145.08 818.898C1146.18 806.062 1130.47 792.945 1133.61 786.671C1134.7 784.478 1136.61 783.657 1142.08 784.478C1147.54 785.298 1152.45 784.212 1153 781.199C1153.55 778.198 1152.18 777.926 1146.99 776.557C1142.4 775.349 1140.78 771.151 1131 770.011C1131.66 768.98 1132.26 767.691 1132.7 765.99C1133.21 764.044 1132.04 762.06 1130.09 761.557C1128.15 761.058 1126.17 762.226 1125.66 764.165C1125.28 765.675 1124.87 766.182 1124.89 766.259C1123.34 766.195 1119.63 762.609 1116.24 758.117C1118.49 756.547 1120.4 753.914 1121.93 750.227C1122.69 748.373 1121.81 746.249 1119.95 745.482C1118.1 744.712 1115.98 745.59 1115.21 747.448C1114.44 749.31 1112.86 752.45 1110.94 752.595C1107.93 752.783 1102.76 747.034 1100.22 742.776C1099.19 741.05 1096.97 740.487 1095.23 741.512C1093.51 742.539 1092.95 744.765 1093.98 746.49C1095.19 748.541 1101.01 757.713 1108.3 759.533C1110.9 763.457 1120.18 772.534 1120.41 773.122C1119.16 773.387 1117.66 773.472 1116.57 772.812C1114.34 771.439 1107.46 771.508 1107.21 773.92C1106.96 776.345 1112.16 777.151 1115.52 777.583C1116.75 777.838 1118 777.542 1118.88 777.968L1118.9 777.916C1118.74 779.458 1118.79 781.267 1119.12 783.389C1120.77 793.775 1127.6 804.425 1122.13 810.437C1116.67 816.448 1099.47 814.534 1086.62 812.346C1073.78 810.163 1048 813.305 1045.89 821.601C1046.7 825.423 1054.11 827.914 1063.67 822.724Z" fill="#8F8505" fill-opacity="0.06"/>
<path d="M1166.11 848.483C1166.11 848.483 1160.47 853.268 1164.29 864.351C1164.48 867.24 1163.02 869.971 1161.56 870.52C1160.11 871.066 1156.15 883.427 1161.79 900H1168.42C1168.42 900 1163.67 890.735 1166.11 881.625C1168.54 872.522 1179.63 862.968 1179.63 862.968C1184.73 865.699 1188.65 864.507 1195.21 863.601C1196.85 868.516 1199.94 872.503 1200.49 874.243C1201.04 875.979 1199.94 883.633 1207.96 900H1215.29C1215.29 900 1203.81 880.77 1210.92 864.351C1211.83 863.239 1220.38 857.408 1220.38 845.932C1221.12 837.375 1210.64 828.63 1212.74 824.447C1213.46 822.985 1214.74 822.438 1218.39 822.985C1222.03 823.532 1225.3 822.808 1225.67 820.799C1226.03 818.799 1225.12 818.617 1221.66 817.705C1218.6 816.899 1217.52 814.101 1211 813.34C1211.44 812.653 1211.84 811.794 1212.13 810.66C1212.47 809.363 1211.7 808.04 1210.39 807.705C1209.1 807.372 1207.78 808.151 1207.44 809.443C1207.19 810.45 1206.91 810.788 1206.93 810.84C1205.89 810.796 1203.42 808.406 1201.16 805.411C1202.66 804.365 1203.93 802.61 1204.95 800.151C1205.46 798.916 1204.87 797.499 1203.64 796.988C1202.4 796.475 1200.99 797.06 1200.47 798.299C1199.96 799.54 1198.9 801.634 1197.63 801.73C1195.62 801.856 1192.17 798.023 1190.48 795.184C1189.79 794.034 1188.31 793.658 1187.16 794.341C1186.01 795.026 1185.63 796.51 1186.32 797.66C1187.13 799.027 1191.01 805.142 1195.86 806.355C1197.6 808.972 1203.79 815.023 1203.94 815.415C1203.11 815.591 1202.11 815.648 1201.38 815.208C1199.9 814.293 1195.3 814.339 1195.14 815.947C1194.97 817.564 1198.44 818.101 1200.68 818.389C1201.5 818.559 1202.33 818.362 1202.92 818.646L1202.93 818.611C1202.83 819.639 1202.86 820.845 1203.08 822.26C1204.18 829.183 1208.73 836.284 1205.09 840.292C1201.44 844.299 1189.98 843.023 1181.41 841.564C1172.85 840.109 1155.67 842.204 1154.26 847.734C1154.8 850.282 1159.74 851.943 1166.11 848.483Z" fill="#8F8505" fill-opacity="0.06"/>
<path d="M195.145 67H113.856C97.9446 67 85 79.9442 85 95.855V177.141C85 193.054 97.9446 206 113.856 206H195.145C211.056 206 224 193.054 224 177.141V95.855C224 79.9442 211.056 67 195.145 67ZM218.722 177.141C218.722 190.143 208.145 200.722 195.145 200.722H113.856C100.855 200.722 90.2785 190.143 90.2785 177.141V95.855C90.2785 82.8548 100.855 72.2785 113.856 72.2785H195.145C208.145 72.2785 218.722 82.8548 218.722 95.855V177.141Z" fill="#8F8505" fill-opacity="0.06"/>
<path d="M192.448 104.829C184.885 104.829 178.753 110.96 178.753 118.522C178.753 126.086 184.885 132.216 192.448 132.216C200.01 132.216 206.14 126.086 206.14 118.522C206.14 110.96 200.01 104.829 192.448 104.829Z" fill="#8F8505" fill-opacity="0.06"/>
<path d="M193.817 132.563C190.086 132.563 186.139 135.121 186.139 135.121L178.905 127.888C177.893 126.876 177.548 126.51 176.531 126.51H136.272H108.063V126.442C108.063 125.686 107.45 125.073 106.694 125.073C105.937 125.073 105.324 125.686 105.324 126.442V126.51H102.86C101.347 126.51 100.121 127.736 100.121 129.249C100.121 130.762 101.347 131.988 102.86 131.988H133.533V135.184C133.533 136.696 134.759 137.922 136.272 137.922H149.244C149.06 139.95 150.012 142 151.875 143.118L170.64 154.378C171.508 154.898 172.483 155.158 173.458 155.158C174.48 155.158 175.502 154.872 176.398 154.302L181.492 151.061V168.171H206.14V144.888C206.14 138.081 200.622 132.563 193.817 132.563ZM173.374 143.242L164.508 137.922H173.706L176.828 141.044L173.374 143.242Z" fill="#8F8505" fill-opacity="0.06"/>
<path d="M143.94 125.279H159.961C161.473 125.279 162.699 124.053 162.699 122.54C162.699 121.027 161.473 119.801 159.961 119.801H143.94C142.427 119.801 141.201 121.027 141.201 122.54C141.201 124.053 142.427 125.279 143.94 125.279Z" fill="#8F8505" fill-opacity="0.06"/>
<path d="M1149.11 546.081C1149.23 545.887 1149.36 545.707 1149.52 545.541C1149.56 545.476 1149.6 545.412 1149.65 545.353L1160.11 535.9C1161.88 534.316 1164.34 533.769 1166.61 534.459C1168.87 535.149 1170.61 536.975 1171.2 539.272L1173.25 547.48L1179.53 541.808C1181.29 540.224 1183.76 539.677 1186.02 540.367C1188.29 541.057 1190.03 542.883 1190.61 545.18L1192.67 553.389L1198.95 547.717C1200.71 546.132 1203.17 545.586 1205.44 546.275C1207.71 546.965 1209.45 548.791 1210.03 551.088L1212.08 559.297L1218.36 553.625C1220.13 552.041 1222.59 551.494 1224.86 552.183C1227.12 552.873 1228.86 554.699 1229.44 556.996L1231.5 565.205L1237.78 559.533C1239.54 557.949 1242.01 557.402 1244.27 558.092C1246.54 558.782 1248.28 560.607 1248.86 562.905L1250.92 571.113L1257.2 565.441C1258.96 563.857 1261.42 563.31 1263.69 564C1265.96 564.69 1267.7 566.516 1268.28 568.813L1271.24 580.635L1300.75 589.615C1303.56 586.53 1307.14 584.238 1311.12 582.971C1311.11 582.707 1311.14 582.443 1311.19 582.185L1320.48 551.655L1312.31 542.614C1310.73 540.852 1310.18 538.389 1310.87 536.122C1311.56 533.856 1313.39 532.115 1315.68 531.533L1323.89 529.478L1318.22 523.198C1316.64 521.435 1316.09 518.972 1316.78 516.706C1317.47 514.439 1319.29 512.698 1321.59 512.117L1329.8 510.06L1324.13 503.781C1322.54 502.019 1322 499.556 1322.69 497.289C1323.38 495.023 1325.2 493.282 1327.5 492.7L1335.71 490.644L1330.04 484.363C1328.45 482.601 1327.91 480.139 1328.6 477.873C1329.29 475.605 1331.11 473.865 1333.41 473.284L1341.62 471.227L1335.95 464.947C1334.36 463.184 1333.81 460.723 1334.5 458.455C1335.19 456.188 1337.02 454.447 1339.32 453.866L1347.53 451.811L1341.85 445.53C1340.27 443.768 1339.72 441.305 1340.41 439.038C1341.1 436.772 1342.93 435.031 1345.23 434.449L1358.9 431.027C1358.98 431.02 1359.06 431.016 1359.14 431.017C1359.36 430.983 1359.58 430.972 1359.8 430.982C1360.03 430.982 1360.26 431.005 1360.49 431.049C1360.56 431.069 1360.64 431.049 1360.71 431.072L1373.65 435.01C1379.02 436.642 1382.04 442.311 1380.41 447.674L1341.35 576.04C1340.92 577.441 1340.05 578.664 1338.87 579.53L1330.75 585.477C1340.21 591.356 1344.3 603.035 1340.56 613.531C1336.83 624.026 1326.28 630.497 1315.23 629.076C1304.19 627.655 1295.62 618.723 1294.67 607.624L1284.14 611.434C1282.77 611.931 1281.27 611.97 1279.87 611.547L1151.5 572.486C1146.14 570.855 1143.11 565.186 1144.75 559.823L1148.68 546.879C1148.71 546.802 1148.77 546.749 1148.79 546.675C1148.88 546.467 1148.99 546.268 1149.11 546.081V546.081ZM1158.62 546.367L1166.61 548.8L1164.64 540.912L1158.62 546.367ZM1178.04 552.275L1186.03 554.708L1184.06 546.82L1178.04 552.275ZM1197.45 558.184L1205.45 560.616L1203.48 552.728L1197.45 558.184ZM1216.87 564.092L1224.86 566.524L1222.89 558.636L1216.87 564.092ZM1236.29 570L1244.28 572.433L1242.31 564.545L1236.29 570ZM1261.73 570.453L1255.7 575.908L1263.7 578.341L1261.73 570.453ZM1322.77 544.126L1325.21 536.132L1317.32 538.086L1322.77 544.126ZM1328.68 524.709L1331.11 516.715L1323.23 518.669L1328.68 524.709ZM1334.59 505.291L1337.02 497.299L1329.14 499.253L1334.59 505.291ZM1340.5 485.875L1342.93 477.881L1335.05 479.836L1340.5 485.875ZM1346.41 466.458L1348.84 458.448L1340.96 460.418L1346.41 466.458ZM1352.32 447.042L1354.75 439.032L1346.86 441.002L1352.32 447.042ZM1373.94 445.704C1374.48 443.916 1373.47 442.027 1371.68 441.482L1361.98 438.529L1318.65 580.919L1323.5 582.396L1334.88 574.071L1373.94 445.704ZM1313.31 621.722C1322.24 624.441 1331.69 619.401 1334.41 610.464C1337.13 601.529 1332.09 592.08 1323.15 589.361C1314.22 586.642 1304.77 591.681 1302.05 600.617C1299.34 609.553 1304.38 618.994 1313.31 621.722ZM1151.22 561.793C1150.67 563.581 1151.68 565.47 1153.47 566.014L1281.83 605.074L1295.08 600.267L1296.56 595.412L1154.17 552.085L1151.22 561.793Z" fill="#8F8505" fill-opacity="0.06"/>
<path d="M1317.89 435.581C1294.86 435.325 1280.17 437.186 1259 448.581C1257.36 449.466 1255.3 448.848 1254.42 447.203C1253.53 445.556 1254.15 443.506 1255.8 442.621C1278.14 430.611 1294.26 428.55 1317.98 428.819C1319.85 428.841 1321.35 430.371 1321.33 432.239C1321.31 434.109 1319.78 435.606 1317.91 435.585L1317.89 435.581Z" fill="#8F8505" fill-opacity="0.06"/>
<path d="M1315.51 455.976C1292.32 457.77 1269.91 465.181 1250.22 477.567C1248.64 478.437 1246.66 477.917 1245.71 476.385C1244.76 474.853 1245.18 472.846 1246.66 471.822C1267.27 458.861 1290.72 451.106 1315 449.224C1316.86 449.083 1318.49 450.479 1318.63 452.343C1318.77 454.207 1317.38 455.834 1315.51 455.976V455.976Z" fill="#8F8505" fill-opacity="0.06"/>
<path d="M1312.98 476.368C1287.7 479.472 1263.98 490.277 1245.04 507.315C1244.16 508.113 1242.92 508.387 1241.78 508.04C1240.62 507.683 1239.73 506.728 1239.47 505.539C1239.2 504.35 1239.6 503.109 1240.5 502.293C1260.5 484.322 1285.54 472.931 1312.23 469.667C1313.45 469.487 1314.68 469.99 1315.42 470.977C1316.17 471.964 1316.31 473.28 1315.81 474.406C1315.3 475.533 1314.21 476.293 1312.98 476.387L1312.98 476.368Z" fill="#8F8505" fill-opacity="0.06"/>
<path d="M1321.18 595.833C1326.54 597.465 1329.57 603.134 1327.94 608.495C1326.31 613.858 1320.64 616.881 1315.27 615.25C1309.91 613.618 1306.89 607.949 1308.52 602.587C1310.15 597.225 1315.82 594.202 1321.18 595.833V595.833ZM1317.24 608.778C1319.03 609.321 1320.92 608.313 1321.46 606.525C1322.01 604.739 1321 602.849 1319.21 602.305C1317.43 601.761 1315.54 602.769 1314.99 604.556C1314.45 606.344 1315.46 608.234 1317.24 608.778Z" fill="#8F8505" fill-opacity="0.06"/>
<path d="M1230.4 275.175C1202.54 251.576 1204.02 281.496 1172.03 285.698C1171.57 284.322 1171.06 282.979 1170.48 281.679C1202.41 212.34 1088.65 209.285 1138.8 285.451C1139.45 287.883 1139.88 290.198 1140.12 292.439C1102.76 290.981 1105.87 256.69 1076.6 281.485C1058.17 297.823 1061.12 322.779 1067.88 349.28C1067.84 341.763 1069.31 336.043 1074.16 334.375C1077.08 338.463 1071.54 343.623 1086.72 337.59C1098.74 361.264 1096.65 353.488 1102.42 341.972C1108.6 344.865 1108.63 349.576 1117.06 348.932C1091.1 394.312 1151.37 392.857 1171.76 420.047C1181.51 430.031 1175.73 440.016 1154.38 450C1199.39 443.577 1218.72 432.267 1173.81 370.184C1171.85 367.487 1171.34 362.744 1171.54 356.69C1179.27 357.798 1177.88 347.689 1183.64 341.503C1198.6 345.257 1197.15 339.137 1204.58 335.661C1210.35 347.174 1208.26 354.95 1220.27 331.276C1235.46 337.311 1229.92 332.151 1232.84 328.06C1237.69 329.728 1239.15 335.449 1239.12 342.966C1245.88 316.466 1248.83 291.509 1230.4 275.175ZM1143.52 255.44C1141.64 256.172 1139.07 254.103 1137.78 250.821C1136.5 247.534 1136.99 244.276 1138.88 243.534C1140.76 242.802 1143.33 244.87 1144.62 248.153C1145.9 251.441 1145.41 254.701 1143.52 255.44ZM1158.98 273.294C1157.1 274.03 1154.53 271.963 1153.24 268.679C1151.96 265.39 1152.46 262.132 1154.34 261.393C1156.23 260.657 1158.8 262.726 1160.08 266.01C1161.36 269.296 1160.87 272.558 1158.98 273.294ZM1165.71 255.418C1163.82 256.154 1161.25 254.084 1159.97 250.8C1158.68 247.515 1159.18 244.253 1161.06 243.517C1162.95 242.781 1165.52 244.848 1166.8 248.131C1168.08 251.42 1167.59 254.679 1165.71 255.418Z" fill="#8F8505" fill-opacity="0.06"/>
<path d="M401.492 862.789C401.483 862.777 401.469 862.772 401.46 862.76C401.357 862.635 401.244 862.517 401.122 862.409C398.954 860.59 394.311 861.219 385.08 862.833L384.298 858.132L393.951 852.621C394.273 852.437 394.516 852.141 394.633 851.788L396.141 847.263C396.311 846.752 396.195 846.188 395.837 845.784C395.479 845.381 394.933 845.199 394.404 845.308C393.876 845.416 393.445 845.798 393.275 846.31L391.948 850.287L381.885 856.035C381.337 856.349 381.042 856.97 381.146 857.593L382.105 863.353C381.023 863.543 379.912 863.733 378.772 863.925L372.633 854.706L382.001 848.015C382.262 847.829 382.456 847.564 382.555 847.26L384.063 842.736C384.326 841.945 383.898 841.09 383.107 840.826C382.316 840.563 381.461 840.991 381.198 841.783L379.84 845.841L369.682 853.097C369.02 853.57 368.853 854.483 369.304 855.16L375.495 864.454C369.552 865.436 363.556 866.058 357.538 866.318L352.528 855.642L353.03 853.127L360.384 861.362C360.858 861.895 361.64 862.024 362.259 861.671C362.878 861.318 363.166 860.579 362.948 859.901L353.029 828.689H371.59C372.538 828.69 373.431 828.246 374.002 827.49C374.573 826.734 374.756 825.754 374.495 824.843L366.307 796.187C365.933 794.893 364.75 794.002 363.404 794H333.729C332.698 794 331.738 794.527 331.185 795.396C330.631 796.266 330.56 797.358 330.996 798.292L339.55 816.623H327.183C325.994 816.623 324.916 817.321 324.43 818.407C323.944 819.492 324.141 820.761 324.933 821.648L350.533 850.316L349.489 855.534C349.426 855.851 349.465 856.179 349.602 856.471L354.254 866.393C354.163 866.393 354.074 866.393 353.984 866.393C352.211 866.413 350.457 866.762 348.812 867.422L343.497 859.976L344.919 850.022C345.038 849.197 344.465 848.433 343.64 848.315C342.816 848.196 342.051 848.769 341.933 849.594L340.425 860.151C340.37 860.535 340.466 860.926 340.692 861.241L346.076 868.782C343.348 870.46 341.082 872.793 339.485 875.569C339.301 875.489 339.103 875.446 338.902 875.443C338.099 875.441 337.305 875.28 336.565 874.968C334.418 874.183 332.136 873.832 329.853 873.934C324.725 873.934 322.844 878.308 322.417 881.522C320.59 881.518 318.819 880.897 317.389 879.761C315.651 878.254 314.771 875.786 314.771 872.426C314.771 871.593 314.095 870.918 313.262 870.918C312.429 870.918 311.754 871.593 311.754 872.426C311.754 876.699 312.985 879.934 315.413 882.039C317.477 883.717 320.069 884.607 322.728 884.552C323.122 884.554 323.516 884.534 323.909 884.492H372.082C381.505 884.492 402.246 875.013 402.246 864.885C402.257 864.123 401.992 863.382 401.501 862.799L401.492 862.789ZM364.853 796.602L363.404 797.016L364.853 796.602ZM339.55 819.639C340.581 819.639 341.541 819.113 342.094 818.243C342.648 817.373 342.719 816.281 342.283 815.347L333.729 797.016H363.402L371.59 825.672H353.029C352.067 825.673 351.163 826.132 350.595 826.908C350.028 827.685 349.864 828.686 350.156 829.602L357.947 854.088L327.188 819.639H339.55ZM353.984 869.41C354.848 869.41 355.703 869.38 356.56 869.359H356.609C356.623 869.356 356.636 869.353 356.649 869.35C365.858 868.942 375.024 867.845 384.069 866.066H384.093H384.104L384.333 866.027C388.436 865.186 392.589 864.611 396.767 864.305C388.559 869.422 376.254 872.426 363.033 872.426C355.246 872.205 347.594 874.489 341.203 878.943C343.189 873.769 348.622 869.41 353.984 869.41V869.41ZM329.853 876.951C331.793 876.853 333.734 877.146 335.56 877.81C336.402 878.134 337.286 878.337 338.185 878.414C337.842 879.406 337.607 880.433 337.484 881.475H325.479C325.792 879.685 326.777 876.951 329.853 876.951V876.951ZM372.082 881.475H342.879C348.772 877.348 355.841 875.232 363.033 875.443C377.104 875.443 390.263 872.125 398.96 866.482C396.708 873.591 380.424 881.475 372.082 881.475Z" fill="#8F8505" fill-opacity="0.06"/>
<path d="M381.97 176.79H378.825C377.817 176.79 377 175.978 377 174.976C377 173.973 377.817 173.161 378.825 173.161H381.97C383.846 173.161 385.589 174.083 386.642 175.626L390.631 181.49L393.662 176.122C394.15 175.245 395.259 174.935 396.147 175.427C397.024 175.918 397.337 177.024 396.842 177.897L392.917 184.849L395.245 188.276C395.95 188.123 396.689 188.112 397.409 188.278C397.684 188.339 397.937 188.449 398.194 188.556L405.673 178.372L402.521 173.58C401.973 172.742 402.208 171.617 403.053 171.069C403.891 170.525 405.021 170.752 405.581 171.595L408.148 175.497C409.878 174.145 412.185 173.631 414.359 174.253L417.628 175.19L421.362 169.787C421.928 168.961 423.062 168.752 423.901 169.319C424.731 169.886 424.941 171.014 424.371 171.841L421.326 176.248L426.76 177.805C427.73 178.083 428.285 179.088 428.007 180.051C427.73 181.011 426.735 181.559 425.747 181.292L413.35 177.74C412.013 177.362 410.577 177.849 409.767 178.958L407.867 181.545L414.145 184.183C415.076 184.573 415.511 185.637 415.119 186.56C414.823 187.251 414.145 187.668 413.436 187.668C413.197 187.668 412.958 187.621 412.726 187.524L405.655 184.553L400.839 191.11L402.262 194.274L415.771 214.409H453.771C458.028 214.409 461.816 216.283 464.45 219.208C468.8 217.14 470.298 214.721 470.768 212.975C470.836 212.726 471.057 212.547 471.317 212.532C471.577 212.518 471.816 212.671 471.913 212.912C475.171 221.185 470.308 224.429 467.769 225.515C468.005 226.544 468.158 227.606 468.158 228.706C468.158 232.974 466.24 236.762 463.255 239.38L468.696 247.643L468.903 247.958C469.26 248.497 469.456 249.148 469.431 249.841L468.583 273.709C468.547 274.735 467.787 275.628 466.729 275.8C465.523 275.994 464.386 275.183 464.19 273.986L461.273 256.207L456.431 274.202C456.164 275.194 455.223 275.895 454.153 275.826C452.934 275.748 452.01 274.703 452.089 273.493L453.504 251.698L447.464 243.003H425.094L421.011 251.114L424.859 273.241C425.051 274.343 424.431 275.458 423.337 275.856C422.107 276.303 420.745 275.676 420.296 274.453L412.726 253.9L408.982 274.127C408.779 275.24 407.762 276.046 406.6 275.968C405.349 275.884 404.404 274.809 404.49 273.567L406.925 237.823L393.108 206.583L384.99 210.188C383.788 210.721 382.422 210.759 381.193 210.291C379.962 209.823 378.972 208.89 378.437 207.696L377.948 206.611C377.046 204.601 377.592 202.237 379.289 200.824L392.107 190.139L387.379 183.189L385.407 184.69C385.076 184.941 384.687 185.063 384.298 185.063C383.75 185.063 383.208 184.818 382.848 184.351C382.237 183.555 382.388 182.416 383.19 181.808L385.333 180.179L383.617 177.657C383.247 177.114 382.631 176.79 381.97 176.79Z" fill="#8F8505" fill-opacity="0.06"/>
<path d="M844.626 734.593L817.992 710.888C817.307 710.279 816.317 710.156 815.505 710.58C814.692 711.003 814.226 711.884 814.332 712.794L815.643 723.951L798.66 717.814C797.514 717.4 796.249 717.994 795.834 719.14C795.42 720.287 796.014 721.551 797.16 721.966L814.143 728.103L806.003 735.845C804.537 737.239 805.572 739.719 807.598 739.65L843.233 738.448C844.135 738.417 844.928 737.841 845.234 736.992C845.541 736.143 845.299 735.193 844.626 734.593V734.593ZM813.251 735.043L819.773 728.84C820.284 728.354 820.522 727.646 820.444 726.984L819.394 718.045L837.569 734.222L813.251 735.043Z" fill="#8F8505" fill-opacity="0.06"/>
<path d="M704.697 701.04C704.738 701.934 705.311 702.711 706.146 703.015C706.645 703.201 743.081 716.481 743.283 716.554C743.835 716.756 744.444 716.729 744.976 716.479L761.076 708.926L778.487 715.218C779.633 715.632 780.899 715.039 781.313 713.893C781.727 712.746 781.134 711.481 779.987 711.067L762.576 704.775L755.023 688.675C754.775 688.146 754.327 687.737 753.778 687.538L716.472 674.01C715.632 673.705 714.692 673.937 714.089 674.596C713.487 675.256 713.342 676.213 713.721 677.022L719.425 689.182L705.711 684.226C704.565 683.812 703.3 684.405 702.885 685.552C702.471 686.698 703.065 687.963 704.211 688.377L717.925 693.333L705.965 698.944C705.158 699.322 704.658 700.149 704.697 701.04V701.04ZM723.796 695.455L736.418 700.016L725.218 705.27L712.644 700.686L723.796 695.455ZM743.932 712.093L731.066 707.402L742.289 702.137L755.205 706.805L743.932 712.093ZM751.415 691.376L756.705 702.653L743.789 697.986L738.49 686.689L751.415 691.376ZM719.984 679.978L732.615 684.559L737.918 695.865L725.296 691.303L719.984 679.978Z" fill="#8F8505" fill-opacity="0.06"/>
<path d="M786.576 717.454C787.094 718.557 788.408 719.032 789.511 718.514C790.615 717.997 791.09 716.682 790.572 715.579C790.054 714.475 788.74 714 787.637 714.518C786.533 715.036 786.058 716.35 786.576 717.454Z" fill="#8F8505" fill-opacity="0.06"/>
<path d="M85.2593 279.102C85.3549 278.212 84.9055 277.357 84.126 276.93C83.6613 276.671 49.6564 258.027 49.4681 257.924C48.9529 257.641 48.3465 257.576 47.7829 257.742L30.7249 262.77L14.4671 253.914C13.3967 253.331 12.0563 253.727 11.473 254.797C10.8903 255.867 11.2853 257.207 12.3555 257.791L28.6135 266.646L33.6414 283.704C33.8066 284.265 34.1876 284.737 34.7005 285.017L69.5283 304.038C70.3121 304.466 71.2767 304.379 71.9718 303.819C72.667 303.258 72.9557 302.333 72.7032 301.477L68.9058 288.593L81.7114 295.568C82.7817 296.151 84.1222 295.756 84.7054 294.686C85.2883 293.615 84.8932 292.275 83.8229 291.692L71.0172 284.717L83.6891 280.982C84.5441 280.73 85.1636 279.988 85.2593 279.102V279.102ZM65.5353 281.731L53.7491 275.311L65.616 271.813L77.3506 278.248L65.5353 281.731ZM48.1507 262.235L60.158 268.82L48.2671 272.325L36.2068 265.756L48.1507 262.235ZM37.6174 281.581L34.0955 269.632L46.1558 276.202L49.6837 288.171L37.6174 281.581ZM66.9605 297.606L55.1684 291.166L51.6377 279.187L63.4239 285.607L66.9605 297.606Z" fill="#8F8505" fill-opacity="0.06"/>
<path d="M6.81017 250.48C6.46556 249.311 5.23838 248.642 4.0692 248.987C2.90003 249.332 2.23159 250.559 2.57621 251.728C2.92083 252.897 4.148 253.566 5.31718 253.221C6.48636 252.876 7.15479 251.649 6.81017 250.48Z" fill="#8F8505" fill-opacity="0.06"/>
<path d="M989.874 204.165L965.278 229.978C964.646 230.642 963.67 230.846 962.825 230.49C961.981 230.135 961.443 229.295 961.475 228.38L961.864 217.152L945.443 224.664C944.335 225.171 943.025 224.684 942.518 223.575C942.011 222.467 942.498 221.158 943.607 220.65L960.028 213.138L951.279 206.091C949.704 204.822 950.532 202.266 952.556 202.168L988.169 200.438C989.071 200.394 989.908 200.903 990.284 201.724C990.659 202.545 990.496 203.511 989.874 204.165V204.165ZM958.569 206.295L965.578 211.941C966.128 212.383 966.422 213.069 966.399 213.736L966.087 222.731L982.872 205.115L958.569 206.295Z" fill="#8F8505" fill-opacity="0.06"/>
<path d="M853.177 249.105C853.144 248.211 853.652 247.389 854.459 247.017C854.941 246.791 890.162 230.561 890.357 230.472C890.89 230.226 891.5 230.203 892.05 230.408L908.717 236.611L925.552 228.91C926.66 228.403 927.97 228.89 928.477 229.999C928.984 231.107 928.497 232.417 927.388 232.924L910.553 240.625L904.349 257.292C904.145 257.839 903.732 258.284 903.201 258.528L867.133 275.076C866.321 275.448 865.365 275.295 864.711 274.687C864.056 274.079 863.833 273.137 864.144 272.3L868.83 259.713L855.569 265.779C854.461 266.286 853.151 265.798 852.644 264.69C852.137 263.581 852.625 262.272 853.733 261.765L866.993 255.699L854.613 251.09C853.777 250.779 853.211 249.996 853.177 249.105V249.105ZM872.67 253.102L884.875 247.518L873.28 243.202L861.126 248.805L872.67 253.102ZM891.37 234.864L878.934 240.597L890.551 244.922L903.04 239.208L891.37 234.864ZM900.531 254.897L904.876 243.222L892.388 248.936L888.035 260.63L900.531 254.897ZM870.143 268.839L882.355 263.236L886.711 251.532L874.506 257.116L870.143 268.839Z" fill="#8F8505" fill-opacity="0.06"/>
<path d="M933.429 226.017C933.855 224.875 935.125 224.294 936.268 224.719C937.41 225.144 937.991 226.415 937.566 227.557C937.141 228.7 935.87 229.281 934.728 228.856C933.585 228.431 933.004 227.16 933.429 226.017Z" fill="#8F8505" fill-opacity="0.06"/>
</g>
<defs>
<clipPath id="clip0">
<rect width="1440" height="900" fill="white"/>
</clipPath>
</defs>
</svg>
