<svg version="1.1" viewBox="0 0 1401.9 737.29" xmlns="http://www.w3.org/2000/svg">
    <path d="m3.3264 422.4c-0.076609 0.0766-0.076609 0.15322-0.076609 0.15322 0-0.0766 0-0.0766 0.076609-0.15322z" fill="#583b0f" stroke-width=".76609"/>
    <path d="m227.1 395.89c-2.9878-1.379-6.7416-8.2738-9.9592-15.322v-0.45966c-0.22982-7.3545-2.8345-10.649-4.6731-16.011 17.084-7.5077 30.261-36.849 33.555-44.74 0.61287 0.15322 1.2257 0.22983 1.6854 0.22983 2.4515 0 4.2901-0.53626 5.4392-1.6854l100.05-12.794-0.8427-2.9878-96.527 9.806c0.0766-0.22983 0.22983-0.45965 0.38305-0.76609 1.2257-2.5281 3.4474-2.8345 2.145-5.286-1.2258-2.5281-6.7416-6.9714-6.7416-6.9714l-26.2-15.935s-8.427-5.1328-9.806-5.1328c-1.379 0-3.2942-0.45966-3.2942-0.45966s-5.7457-13.866-14.786-16.088c0 0-1.2257 6.8948 0.91931 13.713 0 0-1.8386-0.91931-2.8345 1.8386-0.91931 2.8345-3.4474 3.4474-4.6732 4.0603-1.2258 0.61287-2.8345-0.91931-4.9796 1.5322-2.145 2.5281-3.7538 3.7538-4.6732 5.8989s-3.4474 2.8345-5.5924 4.6732c-2.1451 1.8386-3.141 3.141-3.7538 7.2012-0.61287 4.0603-3.4474 4.3667-5.5924 7.2012s-1.2258 3.141-1.5322 6.2053c-0.30644 3.141-1.8386 3.141-3.4474 6.5118-0.22982 0.45966-0.38304 0.91931-0.53626 1.379l-3.2176 0.30643v-0.0766l-8.8866-7.048h-7.048l4.6732-24.821-4.2135-5.5925-3.7538-1.8386-0.45965-3.7538-7.9673-0.9193 1.379-2.8345 5.1328 1.379 1.379-4.2135-3.0644-1.3024 1.0725-3.4474 1.8386-2.145s-1.0725-1.5322-1.8386-3.141c-0.76609-1.5322-1.2258-3.2942-1.2258-3.2942s1.379-0.76609 1.379-1.2257-0.61287-1.379-0.61287-1.8386c0-0.45965 1.379-3.907 1.379-3.907s-5.1328-5.1328-8.7334-5.8989c-0.91931-0.22982-2.0684-0.38304-3.2942-0.45965 3.141-1.6854 3.7538-7.1246 0-8.6568-4.2135-1.6854-10.036 0.53626-14.019 1.3024-5.6691 1.1491-10.266 0.15322-14.556-3.907-3.6772-3.524-5.6691-7.6609-8.7334-11.415-0.61287 3.6772 3.2176 9.9592 6.3585 11.798-4.0603 0.0766-9.3463-5.0562-13.636-5.9755-6.9714-1.5322-11.032-4.5199-15.245-9.8826 2.9878 8.8866 10.802 14.249 18.616 18.003-2.5281 0.15322-5.3626 0.22983-7.8141-0.22982 3.141 0.68948 7.4311 5.1328 10.649 7.1246 4.903 2.9111 9.9592 4.4433 15.628 3.2942 4.2901-0.91931 9.2697-3.524 12.411-0.53626l-0.91931 0.45965c-2.9878 1.8386-7.3545 7.3545-7.3545 13.407 0 6.0521 3.2942 11.108 5.1328 12.947 1.8386 1.8386 4.2135 2.5281 4.2135 2.5281v1.6854l-6.8948-1.5322-0.91931-2.3749-2.5281 1.0725s0.61287 4.8264 0.76609 5.7457c0.15322 0.91931 1.379 2.3749 1.379 2.3749s-1.6854 0.91931-1.9918 1.5322c-0.30644 0.61287-0.45966 4.2135-0.45966 4.2135l2.145 0.15322s-6.8948 19.459-8.5802 24.821c-1.6854 5.286 0.76609 7.8141 1.8386 8.7334 1.0725 0.91931 4.6732 3.141 4.6732 3.141l-0.99592 1.9918-50.026 5.0562-7.8907-5.286-9.4229 3.7538 4.3667 6.2053 2.2217 10.112 6.665-0.76609 4.2901-3.141 44.969-5.7457c-0.30644 1.0725-0.22983 1.6088 0.53626 1.6854 1.379 0.15321 4.8264 1.6854 4.8264 1.6854s0.76609 1.2258-2.8345 3.9071c-0.68948 0.53627-1.3024 0.99592-1.8386 1.4556-5.8989 0.15322-10.955 0.0766-14.249-0.22982-13.407-1.2258-36.159-4.9796-48.34 9.0399s-9.3463 33.708-11.874 36.466c-2.5281 2.8345-6.5118 3.4474-6.5118 3.4474s2.1451 2.5281 5.286 1.2257c0 0-6.5118 3.7538-14.019 11.874-7.048 8.1972-4.1369 9.2697-6.7416 14.402 0.45965-0.91931 2.9111-5.6691 4.903-7.3545 0 0 0.91931 4.6731-2.1451 8.427-3.141 3.7538-10.572 10.572-15.628 13.1 0 0 13.1 5.286 31.486-15.935 0 0-0.30644 3.4474-2.1451 5.286-1.8386 1.8386 4.9796-0.30643 9.6527-8.427 0 0 2.1451-1.2257 1.8386 0-0.07661 0.15322 0.53626 0 1.6088-0.30643 2.1451 1.9918 5.0562 5.5158 3.3708 9.0399-2.5281 5.286-15.628 12.181-18.999 17.16 0 0-3.7538 3.141-2.8345 10.572 0.91931 7.5077-4.0603 27.426-5.286 30.261-1.2257 2.8345 0 5.286 0 5.286s2.1451 8.427 1.5322 10.266c-0.61287 1.8386 0.91931 1.8386 0.91931 1.8386l15.935 0.91931s0.30644-4.0603-0.91931-5.8989-4.0603-4.0603-4.6731-5.286c-0.61287-1.2258-0.91931-19.612 0.91931-26.2 1.8386-6.5118 2.8345-14.632 5.8989-16.548 2.4515-1.4556 19.765-15.935 29.724-24.055 3.2176 4.7498 6.2053 9.4229 7.048 11.874 2.1451 6.2053-4.3667 11.568-5.8989 19.305-1.5322 7.8141 8.427 12.487 11.568 17.16s12.794 18.386 14.632 19.612c1.8386 1.2258 6.5118 3.7538 5.8989 6.5118-0.61287 2.8345 1.2257 5.286 1.2257 5.286h21.527s-0.30643-3.4474-0.9193-4.6732c-0.61288-1.2257-3.4474-3.4474-3.4474-3.4474s-3.141-3.141-10.266-7.2012c-7.2012-4.0603-20.914-23.979-20.914-23.979s-1.8386-4.3667 0.30644-11.874 8.427-10.878 11.262-22.14c1.1491-4.5965 0.91931-9.4229 0.30644-13.56 7.8907 3.0644 17.773 5.9755 28.422 7.6609l2.6047 3.2942-2.3749 2.8345 2.8345 3.2942h4.5199l0.61288 3.7538h25.741l4.2135-2.3749-0.22982-2.9111 3.9837-1.762-1.379-3.2942 3.524-5.2094c4.2901 4.8264 11.262 12.794 14.939 18.31 5.5925 8.427 8.7334 13.713 9.0399 21.221 0.30644 7.5077 2.8345 20.608 6.5118 23.366 3.7538 2.8345 4.6732 3.7538 4.9796 8.427 0.30644 4.6732 0.91931 7.5077 3.141 8.427 2.1451 0.91931 19.305 0 19.305 0s-1.5322-4.9796-5.5925-7.8141c-4.0603-2.8345-8.7334-5.5925-10.266-14.326-1.5322-8.7334-7.2012-8.427-8.7334-21.221s-2.8345-13.713-3.7538-29.035c-0.45965-7.3545-0.22983-15.092 0.0766-21.374 3.3708 3.2942 7.8907 7.048 11.721 8.0439 6.5118 1.6854 12.947 0 19.459-1.379 4.5965-0.99592 13.79 0.68948 19.152 2.5281 2.3749 0.8427 3.6772 3.4474 2.8345 5.8223l-4.903 15.858s-3.3708 2.9878-3.7538 2.8345c-1.6854-0.76609-4.8264-0.68948-7.5077 2.3749-3.2942 3.7538-2.3749 6.5118-2.3749 6.5118l-0.22983 5.286c-0.22983 0.91931-0.38304 1.8386-0.53626 2.7579-1.379 8.1972 1.379 12.64 5.4392 10.266 4.0603-2.3749 6.8182-8.5036 12.64-16.011 5.8223-7.5077 7.1246-14.326 12.64-24.208 5.4392-9.8826 2.3749-13.33-2.3749-19.765-4.8264-6.2053-21.527-10.649-28.039-13.713zm-71.936 33.325c-0.45965-0.68948-0.99591-1.6088-1.5322-2.9111-0.15321-0.45966-0.38304-0.99592-0.53626-1.4556 2.0684-0.45966 4.2135-1.0725 6.2053-1.762zm88.024-110.01c-9.1165 18.769-21.757 28.499-32.712 33.631-0.91931-9.1931-1.9152-22.676-1.5322-29.188zm-31.333 42.748c-0.38304-1.379-0.68948-2.9111-0.9193-4.5965-0.0766-0.8427-0.22983-1.8386-0.30644-2.9111 1.6854-0.61288 3.4474-1.3024 5.286-2.0684 12.028-5.0562 22.14-21.067 28.269-32.942-7.8907 23.136-20.608 35.7-32.329 42.518zm-66.956-28.422-0.91931-1.6088 3.6772-0.45965 2.3749 6.8182 1.4556 0.22982c-1.379 1.4556-2.6813 2.6813-3.9071 3.2942-0.45965 0.22983-1.2257 0.45965-2.2983 0.76609zm-20.684 92.544c3.8304 0.45965 7.7375 0.68948 11.645 0.68948v0.53626l0.68948 3.3708-10.495 0.30644z" fill="#583b0f" stroke-width=".76609"/>
    <g fill="#6b4e2d">
        <path d="m1065.7 403.91c-3.8 5.1-6.2 7.8-1.9 15.7 4.3 7.8 5.4 13.2 10 19.2 4.6 5.9 6.8 10.8 10 12.7s5.4-1.6 4.3-8.1c-0.1-0.7-0.3-1.5-0.5-2.2l-0.2-4.2s0.7-2.2-1.9-5.2c-2.1-2.4-4.6-2.4-5.9-1.9-0.3 0.1-3-2.2-3-2.2l-3.9-12.5c-0.6-1.9 0.4-4 2.3-4.6 4.2-1.5 11.5-2.8 15.2-2 5.1 1.1 10.3 2.4 15.4 1.1 3-0.8 6.6-3.7 9.3-6.4 0.3 4.9 0.4 11.1 0.1 16.9-0.7 12.1-1.7 12.9-3 23-1.2 10.1-5.7 9.9-6.9 16.8s-4.9 9.1-8.2 11.4-4.4 6.2-4.4 6.2 13.6 0.7 15.3 0 2.2-3 2.5-6.7c0.2-3.7 1-4.4 4-6.7 3-2.2 4.9-12.6 5.2-18.5 0.2-5.9 2.7-10.1 7.2-16.8 2.9-4.4 8.4-10.7 11.8-14.5l2.8 4.2-1.1 2.6 3.2 1.4-0.2 2.3 3.3 1.9h20.4l0.5-3h3.6l2.2-2.6-1.9-2.2 2.1-2.6c8.4-1.3 16.3-3.7 22.5-6.1-0.5 3.3-0.7 7.1 0.2 10.8 2.2 8.9 7.2 11.6 8.9 17.5s0.2 9.4 0.2 9.4-10.9 15.8-16.6 19-8.2 5.7-8.2 5.7-2.2 1.7-2.7 2.7-0.7 3.7-0.7 3.7h17.1s1.5-2 1-4.2 3.2-4.2 4.7-5.2 9.1-11.9 11.6-15.6 10.4-7.4 9.1-13.6c-1.2-6.2-6.4-10.4-4.7-15.3 0.7-2 3-5.7 5.6-9.4 7.9 6.5 21.6 17.9 23.6 19.1 2.5 1.5 3.2 7.9 4.7 13.1s1.2 19.8 0.7 20.8-2.7 2.7-3.7 4.2-0.7 4.7-0.7 4.7l12.6-0.7s1.2 0 0.7-1.5 1.2-8.2 1.2-8.2 1-2 0-4.2-4.9-18-4.2-24c0.7-5.9-2.2-8.4-2.2-8.4-2.7-4-13.1-9.4-15.1-13.6-1.3-2.8 1-5.6 2.7-7.2 0.8 0.3 1.3 0.4 1.3 0.2-0.2-1 1.5 0 1.5 0 3.7 6.4 9.1 8.2 7.7 6.7-1.5-1.5-1.7-4.2-1.7-4.2 14.6 16.8 25 12.6 25 12.6-4-2-9.9-7.4-12.4-10.4s-1.7-6.7-1.7-6.7c1.6 1.3 3.5 5.1 3.9 5.8-2.1-4.1 0.3-4.9-5.6-11.2-5.9-6.4-11.1-9.4-11.1-9.4 2.5 1 4.2-1 4.2-1s-3.2-0.5-5.2-2.7 0.2-17.8-9.4-28.9-27.7-8.2-38.3-7.2c-2.6 0.2-6.6 0.3-11.3 0.2-0.4-0.4-0.9-0.7-1.4-1.2-2.8-2.1-2.2-3.1-2.2-3.1s2.7-1.2 3.8-1.4c0.6-0.1 0.6-0.5 0.4-1.3l35.6 4.6 3.4 2.5 5.3 0.6 1.8-8 3.5-4.9-7.5-3-6.3 4.2-39.6-4-0.8-1.6s2.8-1.7 3.7-2.5c0.9-0.7 2.8-2.7 1.5-6.9-1.4-4.2-6.8-19.7-6.8-19.7l1.7-0.1s-0.1-2.8-0.4-3.3c-0.2-0.5-1.6-1.2-1.6-1.2s1-1.1 1.1-1.9c0.1-0.7 0.6-4.6 0.6-4.6l-2-0.9-0.7 1.9-5.4 1.2v-1.4s1.9-0.5 3.3-2 4.1-5.4 4.1-10.3c0-4.8-3.5-9.1-5.8-10.6-0.2-0.1-0.4-0.2-0.7-0.4 2.5-2.4 6.4-0.3 9.9 0.4 4.5 1 8.5-0.3 12.4-2.6 2.6-1.5 6-5.1 8.4-5.6-1.9 0.4-4.2 0.3-6.2 0.2 6.2-3 12.4-7.2 14.8-14.3-3.3 4.3-6.5 6.6-12.1 7.8-3.4 0.7-7.6 4.8-10.8 4.8 2.5-1.5 5.6-6.5 5.1-9.4-2.4 3-4 6.3-6.9 9.1-3.4 3.2-7.1 4-11.6 3.1-3.2-0.6-7.8-2.4-11.1-1.1-3 1.2-2.5 5.5 0 6.8-1 0.1-1.9 0.2-2.6 0.3-2.8 0.6-6.9 4.7-6.9 4.7s1.1 2.7 1.1 3.1-0.5 1.1-0.5 1.5 1.1 1 1.1 1-0.4 1.4-1 2.6-1.5 2.5-1.5 2.5l1.5 1.7 0.9 2.7-2.4 1 1.1 3.3 4.1-1.1 1.1 2.2-6.3 0.7-0.4 3-3 1.5-3.3 4.4 3.7 19.6h-5.6l-7 5.6v0.1l-2.5-0.3c-0.1-0.3-0.3-0.7-0.4-1.1-1.2-2.7-2.5-2.7-2.7-5.2s0.5-2.7-1.2-4.9-4-2.5-4.4-5.7c-0.5-3.2-1.2-4.2-3-5.7-1.7-1.5-3.7-2-4.4-3.7s-2-2.7-3.7-4.7-3-0.7-4-1.2-3-1-3.7-3.2-2.2-1.5-2.2-1.5c1.7-5.4 0.7-10.9 0.7-10.9-7.2 1.7-11.7 12.7-11.7 12.7s-1.5 0.4-2.6 0.4-7.8 4.1-7.8 4.1l-20.8 12.6s-4.4 3.6-5.4 5.5c-1 2 0.7 2.2 1.7 4.2l0.3 0.6-76.5-7.8-0.7 2.4 79.3 10.1c0.9 0.9 2.4 1.3 4.3 1.3 0.4 0 0.9-0.1 1.4-0.2 2.6 6.2 13 29.5 26.6 35.4-1.5 4.3-3.5 6.9-3.7 12.7v0.3c-2.5 5.6-5.5 11-7.9 12.1-5.5 3-18.7 6.5-22.5 11.6zm75.8 10.5c1.6 0.5 3.3 1 4.9 1.4-0.1 0.4-0.3 0.8-0.4 1.2-0.4 1-0.8 1.8-1.2 2.3zm-39.2-78.8c0.3 5.2-0.5 15.9-1.2 23.2-8.7-4-18.7-11.8-25.9-26.6zm-28-3.3c4.9 9.4 12.9 22.1 22.4 26.1 1.5 0.6 2.9 1.2 4.2 1.7-0.1 0.8-0.2 1.6-0.3 2.3-0.2 1.4-0.4 2.6-0.7 3.7-9.2-5.5-19.3-15.5-25.6-33.8zm78.4 18.3c-0.9-0.2-1.5-0.4-1.8-0.6-0.9-0.5-2-1.5-3.1-2.6l1.1-0.2 1.9-5.4 2.9 0.4-0.7 1.3zm15.2 70.1-8.3-0.3 0.5-2.7v-0.4c3.1 0 6.2-0.2 9.2-0.5z"/>
        <path d="m1192.1 432.65c-3.8 5.1-6.2 7.8-1.9 15.7 4.3 7.8 5.4 13.2 10 19.2 4.6 5.9 6.8 10.8 10 12.7s5.4-1.6 4.3-8.1c-0.1-0.7-0.3-1.5-0.5-2.2l-0.2-4.2s0.7-2.2-1.9-5.2c-2.1-2.4-4.6-2.4-5.9-1.9-0.3 0.1-3-2.2-3-2.2l-3.9-12.5c-0.6-1.9 0.4-4 2.3-4.6 4.2-1.5 11.5-2.8 15.2-2 5.1 1.1 10.3 2.4 15.4 1.1 3-0.8 6.6-3.7 9.3-6.4 0.3 4.9 0.4 11.1 0.1 16.9-0.7 12.1-1.7 12.9-3 23-1.2 10.1-5.7 9.9-6.9 16.8s-4.9 9.1-8.2 11.4c-3.2 2.2-4.4 6.2-4.4 6.2s13.6 0.7 15.3 0 2.2-3 2.5-6.7c0.2-3.7 1-4.4 4-6.7 3-2.2 4.9-12.6 5.2-18.5 0.2-5.9 2.7-10.1 7.2-16.8 2.9-4.4 8.4-10.7 11.8-14.5l2.8 4.2-1.1 2.6 3.2 1.4-0.2 2.3 3.3 1.9h20.4l0.5-3h3.6l2.2-2.6-1.9-2.2 2.1-2.6c8.4-1.3 16.3-3.7 22.5-6.1-0.5 3.3-0.7 7.1 0.2 10.8 2.2 8.9 7.2 11.6 8.9 17.5s0.2 9.4 0.2 9.4-10.9 15.8-16.6 19-8.2 5.7-8.2 5.7-2.2 1.7-2.7 2.7-0.7 3.7-0.7 3.7h17.1s1.5-2 1-4.2 3.2-4.2 4.7-5.2 9.1-11.9 11.6-15.6 10.4-7.4 9.1-13.6c-1.2-6.2-6.4-10.4-4.7-15.3 0.7-2 3-5.7 5.6-9.4 7.9 6.5 21.6 17.9 23.6 19.1 2.5 1.5 3.2 7.9 4.7 13.1s1.2 19.8 0.7 20.8-2.7 2.7-3.7 4.2-0.7 4.7-0.7 4.7l12.6-0.7s1.2 0 0.7-1.5 1.2-8.2 1.2-8.2 1-2 0-4.2-4.9-18-4.2-24c0.7-5.9-2.2-8.4-2.2-8.4-2.7-4-13.1-9.4-15.1-13.6-1.3-2.8 1-5.6 2.7-7.2 0.8 0.3 1.3 0.4 1.3 0.2-0.2-1 1.5 0 1.5 0 3.7 6.4 9.1 8.2 7.7 6.7-1.5-1.5-1.7-4.2-1.7-4.2 14.6 16.8 25 12.6 25 12.6-4-2-9.9-7.4-12.4-10.4s-1.7-6.7-1.7-6.7c1.6 1.3 3.5 5.1 3.9 5.8-2.1-4.1 0.3-4.9-5.6-11.2-5.9-6.4-11.1-9.4-11.1-9.4 2.5 1 4.2-1 4.2-1s-3.2-0.5-5.2-2.7 0.2-17.8-9.4-28.9-27.7-8.2-38.3-7.2c-2.6 0.2-6.6 0.3-11.3 0.2-0.4-0.4-0.9-0.7-1.4-1.2-2.8-2.1-2.2-3.1-2.2-3.1s2.7-1.2 3.8-1.4c0.6-0.1 0.6-0.5 0.4-1.3l35.6 4.6 3.4 2.5 5.3 0.6 1.8-8 3.5-4.9-7.5-3-6.3 4.2-39.6-4-0.8-1.6s2.8-1.7 3.7-2.5c0.9-0.7 2.8-2.7 1.5-6.9-1.4-4.2-6.8-19.7-6.8-19.7l1.7-0.1s-0.1-2.8-0.4-3.3c-0.2-0.5-1.6-1.2-1.6-1.2s1-1.1 1.1-1.9c0.1-0.7 0.6-4.6 0.6-4.6l-2-0.9-0.7 1.9-5.4 1.2v-1.5s1.9-0.5 3.3-2c1.5-1.5 4.1-5.4 4.1-10.3 0-4.8-3.5-9.1-5.8-10.6-0.2-0.1-0.4-0.2-0.7-0.4 2.5-2.4 6.4-0.3 9.9 0.4 4.5 1 8.5-0.3 12.4-2.6 2.6-1.5 6-5.1 8.4-5.6-1.9 0.4-4.2 0.3-6.2 0.2 6.2-3 12.4-7.2 14.8-14.3-3.3 4.3-6.5 6.6-12.1 7.8-3.4 0.7-7.6 4.8-10.8 4.8 2.5-1.5 5.6-6.5 5.1-9.4-2.4 3-4 6.3-6.9 9.1-3.4 3.2-7.1 4-11.6 3.1-3.2-0.6-7.8-2.4-11.1-1.1-3 1.2-2.5 5.5 0 6.8-1 0.1-1.9 0.2-2.6 0.3-2.8 0.6-6.9 4.7-6.9 4.7s1.1 2.7 1.1 3.1-0.5 1.1-0.5 1.5 1.1 1 1.1 1-0.4 1.4-1 2.6-1.5 2.5-1.5 2.5l1.5 1.7 0.9 2.7-2.4 1 1.1 3.3 4.1-1.1 1.1 2.2-6.3 0.7-0.4 3-3 1.5-3.3 4.4 3.7 19.6h-5.6l-7 5.6v0.1l-2.5-0.3c-0.1-0.3-0.3-0.7-0.4-1.1-1.2-2.7-2.5-2.7-2.7-5.2s0.5-2.7-1.2-4.9-4-2.5-4.4-5.7c-0.5-3.2-1.2-4.2-3-5.7-1.7-1.5-3.7-2-4.4-3.7s-2-2.7-3.7-4.7-3-0.7-4-1.2-3-1-3.7-3.2-2.2-1.5-2.2-1.5c1.7-5.4 0.7-10.9 0.7-10.9-7.2 1.7-11.7 12.7-11.7 12.7s-1.5 0.4-2.6 0.4-7.8 4.1-7.8 4.1l-20.8 12.6s-4.4 3.6-5.4 5.5c-1 2 0.7 2.2 1.7 4.2l0.3 0.6-76.5-7.8-0.7 2.4 79.3 10.1c0.9 0.9 2.4 1.3 4.3 1.3 0.4 0 0.9-0.1 1.4-0.2 2.6 6.2 13 29.5 26.6 35.4-1.5 4.3-3.5 6.9-3.7 12.7v0.3c-2.5 5.6-5.5 11-7.9 12.1-5.5 3-18.7 6.6-22.5 11.7zm75.9 10.5c1.6 0.5 3.3 1 4.9 1.4-0.1 0.4-0.3 0.8-0.4 1.2-0.4 1-0.8 1.8-1.2 2.3zm-39.2-78.9c0.3 5.2-0.5 15.9-1.2 23.2-8.7-4-18.7-11.8-25.9-26.6zm-28-3.2c4.9 9.4 12.9 22.1 22.4 26.1 1.5 0.6 2.9 1.2 4.2 1.7-0.1 0.8-0.2 1.6-0.3 2.3-0.2 1.4-0.4 2.6-0.7 3.7-9.3-5.6-19.4-15.6-25.6-33.8zm78.3 18.2c-0.9-0.2-1.5-0.4-1.8-0.6-0.9-0.5-2-1.5-3.1-2.6l1.1-0.2 1.9-5.4 2.9 0.4-0.7 1.3zm15.3 70.1-8.3-0.3 0.5-2.7v-0.4c3.1 0 6.2-0.2 9.2-0.5z"/>
        <path d="m1146.7 420.85c-3.8 5.1-6.2 7.8-1.9 15.7 4.3 7.8 5.4 13.2 10 19.2 4.6 5.9 6.8 10.8 10 12.7s5.4-1.6 4.3-8.1c-0.1-0.7-0.3-1.5-0.5-2.2l-0.2-4.2s0.7-2.2-1.9-5.2c-2.1-2.4-4.6-2.4-5.9-1.9-0.3 0.1-3-2.2-3-2.2l-3.9-12.5c-0.6-1.9 0.4-4 2.3-4.6 4.2-1.5 11.5-2.8 15.2-2 5.1 1.1 10.3 2.4 15.4 1.1 3-0.8 6.6-3.7 9.3-6.4 0.3 4.9 0.4 11.1 0.1 16.9-0.7 12.1-1.7 12.9-3 23-1.2 10.1-5.7 9.9-6.9 16.8s-4.9 9.1-8.2 11.4c-3.2 2.2-4.4 6.2-4.4 6.2s13.6 0.7 15.3 0 2.2-3 2.5-6.7c0.2-3.7 1-4.4 4-6.7 3-2.2 4.9-12.6 5.2-18.5 0.2-5.9 2.7-10.1 7.2-16.8 2.9-4.4 8.4-10.7 11.8-14.5l2.8 4.2-1.1 2.6 3.2 1.4-0.2 2.3 3.3 1.9h20.4l0.5-3h3.6l2.2-2.6-1.9-2.2 2.1-2.6c8.4-1.3 16.3-3.7 22.5-6.1-0.5 3.3-0.7 7.1 0.2 10.8 2.2 8.9 7.2 11.6 8.9 17.5s0.2 9.4 0.2 9.4-10.9 15.8-16.6 19-8.2 5.7-8.2 5.7-2.2 1.7-2.7 2.7-0.7 3.7-0.7 3.7h17.1s1.5-2 1-4.2 3.2-4.2 4.7-5.2 9.1-11.9 11.6-15.6 10.4-7.4 9.1-13.6c-1.2-6.2-6.4-10.4-4.7-15.3 0.7-2 3-5.7 5.6-9.4 7.9 6.5 21.6 17.9 23.6 19.1 2.5 1.5 3.2 7.9 4.7 13.1s1.2 19.8 0.7 20.8-2.7 2.7-3.7 4.2-0.7 4.7-0.7 4.7l12.6-0.7s1.2 0 0.7-1.5 1.2-8.2 1.2-8.2 1-2 0-4.2-4.9-18-4.2-24c0.7-5.9-2.2-8.4-2.2-8.4-2.7-4-13.1-9.4-15.1-13.6-1.3-2.8 1-5.6 2.7-7.2 0.8 0.3 1.3 0.4 1.3 0.2-0.2-1 1.5 0 1.5 0 3.7 6.4 9.1 8.2 7.7 6.7-1.5-1.5-1.7-4.2-1.7-4.2 14.6 16.8 25 12.6 25 12.6-4-2-9.9-7.4-12.4-10.4s-1.7-6.7-1.7-6.7c1.6 1.3 3.5 5.1 3.9 5.8-2.1-4.1 0.3-4.9-5.6-11.2-5.9-6.4-11.1-9.4-11.1-9.4 2.5 1 4.2-1 4.2-1s-3.2-0.5-5.2-2.7 0.2-17.8-9.4-28.9-27.7-8.2-38.3-7.2c-2.6 0.2-6.6 0.3-11.3 0.2-0.4-0.4-0.9-0.7-1.4-1.2-2.8-2.1-2.2-3.1-2.2-3.1s2.7-1.2 3.8-1.4c0.6-0.1 0.6-0.5 0.4-1.3l35.6 4.6 3.4 2.5 5.3 0.6 1.8-8 3.5-4.9-7.5-3-6.3 4.2-39.6-4-0.8-1.6s2.8-1.7 3.7-2.5c0.9-0.7 2.8-2.7 1.5-6.9-1.4-4.2-6.8-19.7-6.8-19.7l1.7-0.1s-0.1-2.8-0.4-3.3c-0.2-0.5-1.6-1.2-1.6-1.2s1-1.1 1.1-1.9c0.1-0.7 0.6-4.6 0.6-4.6l-2-0.9-0.7 1.9-5.4 1.2v-1.5s1.9-0.5 3.3-2c1.5-1.5 4.1-5.4 4.1-10.3 0-4.8-3.5-9.1-5.8-10.6-0.2-0.1-0.4-0.2-0.7-0.4 2.5-2.4 6.4-0.3 9.9 0.4 4.5 1 8.5-0.3 12.4-2.6 2.6-1.5 6-5.1 8.4-5.6-1.9 0.4-4.2 0.3-6.2 0.2 6.2-3 12.4-7.2 14.8-14.3-3.3 4.3-6.5 6.6-12.1 7.8-3.4 0.7-7.6 4.8-10.8 4.8 2.5-1.5 5.6-6.5 5.1-9.4-2.4 3-4 6.3-6.9 9.1-3.4 3.2-7.1 4-11.6 3.1-3.2-0.6-7.8-2.4-11.1-1.1-3 1.2-2.5 5.5 0 6.8-1 0.1-1.9 0.2-2.6 0.3-2.8 0.6-6.9 4.7-6.9 4.7s1.1 2.7 1.1 3.1-0.5 1.1-0.5 1.5 1.1 1 1.1 1-0.4 1.4-1 2.6-1.5 2.5-1.5 2.5l1.5 1.7 0.9 2.7-2.4 1 1.1 3.3 4.1-1.1 1.1 2.2-6.3 0.7-0.4 3-3 1.5-3.3 4.4 3.7 19.6h-5.6l-7 5.6v0.1l-2.5-0.3c-0.1-0.3-0.3-0.7-0.4-1.1-1.2-2.7-2.5-2.7-2.7-5.2s0.5-2.7-1.2-4.9-4-2.5-4.4-5.7c-0.5-3.2-1.2-4.2-3-5.7-1.7-1.5-3.7-2-4.4-3.7s-2-2.7-3.7-4.7-3-0.7-4-1.2-3-1-3.7-3.2-2.2-1.5-2.2-1.5c1.7-5.4 0.7-10.9 0.7-10.9-7.2 1.7-11.7 12.7-11.7 12.7s-1.5 0.4-2.6 0.4-7.8 4.1-7.8 4.1l-20.8 12.6s-4.4 3.6-5.4 5.5c-1 2 0.7 2.2 1.7 4.2l0.3 0.6-76.5-7.8-0.7 2.4 79.3 10.1c0.9 0.9 2.4 1.3 4.3 1.3 0.4 0 0.9-0.1 1.4-0.2 2.6 6.2 13 29.5 26.6 35.4-1.5 4.3-3.5 6.9-3.7 12.7v0.3c-2.5 5.6-5.5 11-7.9 12.1-5.5 3-18.7 6.6-22.5 11.7zm75.9 10.5c1.6 0.5 3.3 1 4.9 1.4-0.1 0.4-0.3 0.8-0.4 1.2-0.4 1-0.8 1.8-1.2 2.3zm-39.3-78.9c0.3 5.2-0.5 15.9-1.2 23.2-8.7-4-18.7-11.8-25.9-26.6zm-28-3.2c4.9 9.4 12.9 22.1 22.4 26.1 1.5 0.6 2.9 1.2 4.2 1.7-0.1 0.8-0.2 1.6-0.3 2.3-0.2 1.4-0.4 2.6-0.7 3.7-9.2-5.6-19.3-15.6-25.6-33.8zm78.4 18.2c-0.9-0.2-1.5-0.4-1.8-0.6-0.9-0.5-2-1.5-3.1-2.6l1.1-0.2 1.9-5.4 2.9 0.4-0.7 1.3zm15.3 70.1-8.3-0.3 0.5-2.7v-0.4c3.1 0 6.2-0.2 9.2-0.5z"/>
    </g>
    <g fill="#3d2008">
        <path d="m314.99 418.9-15-10.1-2.9 4.3-65.7-4.7c-6-4.1-12.9-6.8-20.4-7.8-9.5-1.2-18.7 0.4-27 4.4l-27.2-1.9c1.3-1.4 2.4-2.3 2.4-2.3s8.4-10.5 3.1-14.7c-2.6-2-6.2-3.9-12.1-4.8 0-3.9 1.1-7.2-2.6-10.9-3.8-3.7-12.8-4.5-17-1.1-4.1-3.6-12.2-11.1-17.6-11.3-3-0.1-9.7 4.7-13.7 5.1-2.9 0.3-6.2 0.4-9.4 0 7.6 2 14.3 6.8 22.1 6.3 2.4-0.2 4.1 2.5 2.9 4.6v0.1c-5.2-1-10.5-0.7-15.7-0.7 1.3 4.7 8.6 3.7 13.3 5.4 4.1 1.4 6 3.5 8.6 5.2-7.2 2.4-11.9 8.5-14.9 15.6l-31.4-2.2c1-1.9 1.7-4.4 2.2-7.5 1.8-4 2.3-8.3 0.2-10.6-0.3-4.3-0.4-4.2-1.5-2.4-3.1-5.2-10.4-2.9-10.7 4.1-5.9-1.4-10.3 5.6-10.7 10.7-4.6 0.2-5.4 1.8-4.3 3.9l-3.7-0.3-26.6-1.2-1.2 9.1 38.9 2.4c0.4 8.8-1.8 27.8-0.6 34.1 1.4 7.2 10.6 25.8 21.8 28.5 11.3 2.6 26.2 4.6 26.2 4.6l2.1 28.2s-11.4 16-18.2 23.2c-6.8 7.3-2.3 17.2-3.3 25.2l-20.4 24-26 6.6-12.4 10.4s-12.1 15.5-3.2 16.7 12.5-3.4 16.1-7.9c3.6-4.6 12.9-6.4 12.9-6.4s6.7 9.9 19 8.5 14.5-3.1 21.5-10.3c4.4-4.5 17.4-18.1 26.2-27.4l1.6 18.3 7 9.1s-2.1 33.5-1.8 40.5c0.2 7 4.5 19.2 6.3 22.9s3.1 12 3.5 17.9 11.4 1.5 20.4 3.9c9 2.3 10.3 1.4 7.9-7.1s-9.2-9.4-13.4-13.4c-4.1-4-3.8-33.1-3.8-33.1l3.2-33.3s2-14.9 3.9-20.4c1.9-5.6-2.4-25.9-1.1-36.2 1.4-10.3-7.2-16.1-6.6-20.6 0.6-4.6 3-22.9 3-22.9s3.4-4.3 7.6-8.8c6.8 17.2 21.5 30 39.9 32.5 28.1 3.7 54.2-18.4 58.3-49.3 2.4-17.9-3.2-34.8-13.7-46.7l56.6 3.4-0.8 5.7zm-207.4 20.4c-0.6 4.6-9 15.1-9 15.1l-14.4-5.4s-14.1-17-13.8-27.4c0.1-6.7-0.4-11.6-0.4-15.4l33.1 2c-2.9 11.8-2.6 23.1-2.6 23.1s8.6-3.5 14.6-5.1c6-1.5 4.2 12.2 4.2 12.2s-11.1-3.7-11.7 0.9zm55.7-16.6c-3.1-2.3-7.5-6-9.1-9.9-0.2-0.5-0.4-1-0.5-1.5l18.9 1.1c-3.5 3.1-6.6 6.5-9.3 10.3z"/>
        <path d="m71.285 298.6c-1.1-0.3-2.1-0.5-3.2-0.6 1 0.3 2.1 0.5 3.2 0.6z"/>
        <path d="m1205.9 523.8c-23.878-4.4096-42.016-27.289-42.016-54.828 0-30.7 22.547-55.577 50.419-55.577 8.819 0 17.139 2.496 24.377 6.9055-0.1664-2.3296-0.832-2.1632-1.4144-3.9936-0.7488-2.2464-2.9952-7.4047-1.4976-11.149 0.832-2.1632-3.744-5.1583-3.744-5.1583l-2.9951-8.1535-8.9023 1.4976s-1.1648-8.4863 5.6575-16.64l-47.923-2.4128v4.9919l-9.6511-6.6559 9.6511-6.6559v3.8272c5.6575 0.416 26.79 1.248 52.915 2.3296 4.0767-3.0784 9.7342-5.7407 17.472-7.6543 14.976-3.5776 24.045 1.9136 29.868 9.4015 3.5775 0.1664 7.0719 0.2496 10.65 0.416-0.083-2.1632 0.2496-3.9104 0.2496-3.9104s2.0799-3.4944 14.393 4.4096c33.862 1.248 61.151 2.2464 61.151 2.2464l-0.7487 6.6559-51.833-2.6624c0.3328 0.74879 0.5824 1.664 0.7488 2.6624 0.7488 6.6559 2.9951 20.051 2.9951 22.214 0 2.2464-4.4095 15.558-7.4047 19.302-2.9951 3.744-17.056 10.4-17.056 10.4s0.7488 11.897-1.4976 14.809c-2.2463 2.9952-3.7439 14.061-3.7439 19.302 0 4.0768-0.9152 6.3231-1.664 10.233 19.552 14.393 55.327 42.182 53.331 41.516-1.4976-0.4992-28.87-14.643-51.417-26.374-1.0816 1.9136-2.5792 4.16-3.9936 6.3231l1.1648 3.4944s-2.4127 2.1632-6.2399 5.4911v0.49919c-0.1664 0.0832-0.416 0.1664-0.5824 0.2496l-4.6591 23.545s31.532 35.027 37.606 37.606c6.1567 2.6624 8.7359 12.23 8.7359 12.23l1.7472 11.398-21.049 9.6511s-45.51-42.931-48.172-49.919c-1.248-3.2448-3.3279-10.566-5.3247-17.472-5.408 4.7423-10.15 8.9023-13.062 11.315-11.398 9.6511-13.145 12.23-17.472 21.881-4.4095 9.6511-6.9887 49.004-6.9887 49.004l-28.87-6.1567s5.2415-56.908 10.483-65.644c2.9119-4.16 9.7342-14.893 16.307-24.793zm84.696-109.66c5.1584-2.9952 5.9072-6.6559 8.1535-11.149 2.2464-4.4096-1.4975-3.744 0-8.9023 1.4976-5.1583-3.7439-8.9023-7.4047-12.563-0.416-0.416-0.832-0.99839-1.1648-1.4976l-8.3199-0.416c3.6608 6.7391 5.3248 13.728 6.4896 16.723 2.9951 7.4047-5.1584 14.061-5.9072 17.805-0.6656 3.744 2.9952 2.9952 8.1535 0z" clip-path="url(#SVGID_2_)" stroke-width=".83199"/>
    </g>
    <g fill="#200001">
        <path d="m884.15 402.62 2.9958 9.1495 55.302 26.396c4.0484-4.1294 8.6637-6.4775 13.684-6.3966 9.9592 0.081 18.542 9.7163 22.914 23.805l27.934 13.36c-2.3481-3.1578-4.9391-6.8824-6.3965-11.336-2.9959-9.1495-1.8623-15.303 3.3197-24.372 2.672-4.6962 7.2872-8.9066 12.307-11.174l1.0526-4.9391s-10.04-11.255-0.8907-14.251c9.1495-2.9959 9.2305-5.9917 19.352-4.9391 10.121 1.1336 16.275 2.1862 23.4-0.80969 7.1252-2.9958 11.174-2.9149 2.0242 5.101-9.2305 8.0159-15.384 13.036-21.457 11.012-2.1862-0.72872-4.0485 0.081-5.4249 1.4574-2.4291 2.3481-5.5869 3.6436-8.9066 4.0484-1.1336 0.16194-2.0242 0.40485-2.0242 0.40485l0.1619 0.89066c2.4291-0.16194 4.7772 0.16193 6.9633 1.2145 9.1495 4.1294 19.999 36.76 19.999 36.76s12.226 0.081 17.246 7.2872c5.02 7.2062 19.028 30.687 19.028 30.687l1.2955 11.498 90.604 43.318-5.101 5.0201-84.775-40.323 0.9716 8.6637 12.793 5.6678 8.9876 19.433-2.672 10.202 20.728 10.283s18.218 8.3398 8.0159 11.255c-10.202 2.9149-15.222-2.1862-19.271-3.2388-1.6194-0.40485-5.5869-1.2145-9.7163-1.9433 1.7813 17.894 2.1862 42.59 2.1862 42.59l-4.6153 5.6678c5.9918 7.2062 15.06 17.894 22.186 25.748l5.6678 1.0526 9.7972 7.3682 8.9066 10.364s4.3723 11.417-0.1619 13.198c-0.4858 0.56679-1.3765 0.97163-2.753 0.97163-5.101-0.081-23.4 2.8339-28.501 1.7813-5.101-1.0526-12.145-4.2104-12.145-4.2104s-0.9716-8.1779 5.182-7.0443c6.0727 1.0526 6.1537-5.0201 6.1537-5.0201s-16.113-15.384-24.21-19.514c-4.1294-2.1052-10.688-8.0159-16.032-13.279l-10.202-2.2671-22.186-15.465s-15.06 1.2145-26.072 1.6194c-0.9716 2.9959-1.9432 6.0727-2.6719 9.3114-1.5384 6.7204-1.1336 12.064-0.2429 17.327l8.2588 5.101 3.9675 14.251-0.162 14.251s2.672 5.101-11.336 2.9149c-3.0768 0.97163-15.222-0.16193-20.323-0.16193-5.101-0.081-17.246-2.1862-20.323-5.263-2.9959-3.0768-2.9959-5.101 5.101-5.0201 8.0969 0.081 21.376-2.8339 17.408-12.064-3.3197-7.773-8.6637-42.347-10.202-52.954-1.3765-1.2145-2.591-2.3481-3.3197-3.1578-4.0484-4.1294-5.9917-15.303-5.9917-15.303s19.352-6.9633 27.61-16.032c8.2589-9.0685 8.2589-11.093 14.332-11.012 6.0727 0.081 6.1537-1.9433 8.2589-9.0685s0.081-10.202 4.2104-13.198c4.1294-2.9958-1.9433-12.226-5.9108-18.38-4.0484-6.1536-11.174-5.182-13.117-8.2588-2.0243-3.0768-3.1578 11.174-16.356 12.064-13.198 0.89066-18.299-2.1862-23.319-9.3924-0.97163-1.3765-2.2671-3.2388-3.6436-5.263-4.8581 8.2588-11.498 13.279-18.785 13.198-14.574-0.16194-26.234-20.728-25.991-45.99 0.16194-13.36 3.5626-25.262 8.8256-33.602l-52.063-24.777-7.1253 1.9433-53.601-35.06zm97.892 75.139c0 2.51-0.16194 5.0201-0.40485 7.4492 6.6395 3.0768 10.688 6.8014 17.57 3.9675 6.2346-2.591 11.012-6.8014 12.064-10.526l-30.282-14.412c0.72872 4.2104 1.1336 8.7446 1.0526 13.522z" clip-path="url(#SVGID_2_)" stroke-width=".80969"/>
        <path d="m230.1 277.89c-1.5-0.2-3.1-0.3-4.6-0.3 1.4 0.2 3 0.3 4.6 0.3z"/>
        <path d="m499.97 114.67c-5.4729 0-10.455 1.3116-14.787 4.0644-11.798 7.499-17.217 24.68-15.404 48.752l4.6016 2.5059 2.5742 4.7461-3.2441-3.7207h-3.625c0.0902 0.95028 0.18162 1.9189 0.30859 2.8867 1.9195 16.023 6.6516 33.566 13.738 51.488 0.34642 0.87276 0.71697 1.7503 1.0742 2.625-6.6726 3.8441-12.984 9.0566-12.984 9.0566-1.2329-0.056-2.4098-0.0738-3.5508-0.0352 3.0438 7.6687 6.5068 15.416 10.404 23.143 0.59808-0.49352 1.0867-1.0255 1.5762-1.4805 0.54462-0.57052 1.1231-1.0065 1.5391-1.5 0.43603-0.47602 0.79808-0.91265 1.1055-1.2539 0.54462-0.58976 0.90783-0.96771 0.99804-1.043-0.0551 0.1138-0.29105 0.55045-0.70703 1.2715-0.23555 0.41651-0.54532 0.91366-0.87109 1.4824-0.32576 0.56878-0.8152 1.1374-1.3047 1.7832-0.48948 0.64575-1.0156 1.3657-1.6856 1.9922l-0.0176 0.0195c0.88876 1.7658 1.8117 3.5487 2.7539 5.3145 3.3716-2.9226 4.859-6.0546 6-8.4102 1.7391-3.6628 4.4034-5.2937 5.8535-5.9394-1.3782-2.7528-2.1382-6.8191-2.3203-7.9199 0.81692 3.7031 3.334 7.541 3.334 7.541 0.54628 0.97041 1.3793 1.8537 2.373 2.6582 0.0752 0.14165 0.14525 0.28437 0.22071 0.42579 1.704 3.2096 3.4788 6.4169 5.3281 9.6055 14.352 24.814 31.3 46.342 48.77 62.08v-1.9355l-3.9336-5.9238 5.2207 5.0898 3.623 3.3223-2.9531-0.81641-0.27149 1.7656c3.697 3.2831 7.4291 6.2644 11.145 8.9805 21.676 15.777 40.689 19.971 53.537 11.826 20.126-15.218 19.467-48.317 16.27-66.066-0.88452-4.6437-1.969-9.4094-3.3047-14.258l-1.4785-0.42969-0.35156 3.1641-1.3906-4.793-2.2402-7.0234 3.3281 6.1113 1.5195 0.75977c-6.4877-22.998-17.695-47.766-32.352-71.322-1.8816-3.0319-3.8031-6.0002-5.75-8.9004-1.0695-1.6001-2.1606-3.1896-3.248-4.7383-0.25535-0.37325-0.52361-0.75189-0.78515-1.1074-4.7554-6.7846-9.6733-13.158-14.67-19.098-11.687-13.856-23.866-25.293-35.797-33.428-0.71687-0.50193-1.4447-0.97004-2.1602-1.4297l-1.2168 3.4902 1.8301 4.584-2.8613-4.3418-0.42188-5.4141c-10.639-6.5112-20.266-9.743-28.398-9.6523 0.16713-0.0434 0.32905-0.0974 0.49804-0.13672-1.8677-0.28526-3.68-0.41797-5.4375-0.41797zm-4.3809 15.092c8.4912-0.14614 19.165 4.4205 31.246 13.539 3.1237 2.3512 6.2813 4.99 9.4512 7.8379l12.633 51.596a31.915 15.338 60.319 0 0-7.7871-0.16406l-49.523-72.35c1.2676-0.27627 2.593-0.43511 3.9805-0.45898zm-4.6211 0.60937 45.131 79.184a31.915 15.338 60.319 0 0-0.375 7.6465l-43.203-33.248c-1.5109-5.6755-2.7198-11.203-3.5879-16.521-2.507-15.244-2.1263-27.73 0.97852-36.764 0.34595-0.11195 0.70042-0.20564 1.0566-0.29688zm47.979 23.184c6.8157 6.3923 13.673 13.851 20.396 22.168 1.1242 1.3832 2.2432 2.7992 3.3594 4.2305l-3.3164 29.766a31.915 15.338 60.319 0 0-3.7363-3.2227zm24.486 27.338c4.7406 6.134 9.3916 12.691 13.881 19.594l-11.715 16.434a31.915 15.338 60.319 0 0-0.58789-0.82031 31.915 15.338 60.319 0 0-2.4883-3.0508zm-70.16 5.7559 44.15 38.926a31.915 15.338 60.319 0 0 2.0625 5.6953l-29.799-1.9629c-2.3154-4.7995-4.4747-9.5891-6.4531-14.338-4.0584-9.6692-7.3902-19.173-9.9609-28.32zm-463.89 12.611 23.289 42.678 11.615 3.4922 159.15 181.81c-3.0941 3.9328-5.2967 8.3046-4.9414 12.029 0.90713 9.4922 19.936 20.429 26.062 18.758 1.3044-0.35657 2.6211-1.1388 3.9492-2.1504l71.643 81.844c-3.2913 1.5357-6.8707 3.64-10.656 6.5176-7.6848 5.8486-16.221 14.866-24.92 28.725-8.5351 10.955-9.5507 21.321-12.83 26.979-4.5307 7.8402-18.361 18.738-18.361 18.738-15.169 10.935-9.2966 23.979-9.2969 23.979-8.9711 10.576-13.773 28.858-16.129 41.273-1.2864 6.7581 3.6255 13.078 10.223 13.078h28.342c3.099-9.5118-5.2897-13.723-6.7949-14.389l-0.0352-0.0195-0.18359-0.0547c-0.34415-0.0773-0.74062-0.17129-1.1934-0.26562-0.87038-0.21053-1.8843-0.34517-2.9902-0.47852-1.1063-0.0944-2.2843-0.14972-3.4805-0.11132-2.3923 0.0574-4.766 0.43526-6.5234 0.89062-1.3415 0.34269-2.3203 0.68501-2.7012 0.81836 0.34581-0.21 1.3038-0.62713 2.627-1.1016 1.7224-0.62702 4.0963-1.2518 6.5254-1.5566 1.2145-0.15173 2.4444-0.22852 3.6055-0.22852 1.1594 0.0193 2.248 0.0563 3.1719 0.18945 0.27231 0.0193 0.52617 0.0575 0.76172 0.0937-1.0157-12.852 5.6191-31.742 5.6191-31.742 6.1244-4.9733 9.2957-14.237 10.201-19.934 0.90714-5.6945 4.7671-10.898 15.17-20.391 10.44-9.4922 36.483-17.085 47.121-27.527 3.6911-3.6148 7.0093-8.163 9.7871-12.572l15.873 18.133c-0.72505 2.6391-0.18016 5.5989 1.7227 7.7637 1.4685 1.6696 3.4261 2.5617 5.4375 2.6562l-0.14258 3.3809 13.738 3.5898-2.2129-14.658-3.2441-0.13086c0.0902-2.107-0.58037-4.235-2.0488-5.9062-1.9028-2.1648-4.6569-2.9988-7.248-2.4668l-16.404-18.74c3.7463-1.3632 9.9817-4.0058 15.643-8.1973 5.8187-4.2911 10.349-11.865 12.76-16.479l0.0176-0.0586s1.7559-4.2735 2.4258-8.2969c0 0-0.0709 4.5024-1.0684 7.8047 9.895-3.7013 24.232-11.432 38.424-21.094 8.7172-5.9434 19.624-16.975 28.904-27.207 0.99568 0.0385 2.0121 0.0767 3.0078 0.11523l-8.0449 54.623 39.562 18.357 22.961-49.365-1.0684-29.48c1.288-0.36051 2.5554-0.7592 3.8418-1.1582 2.8634 3.9691 5.6714 7.6891 8.3711 11.221 0 0 0.0751 0.0938 0.21875 0.26367 0.20047 0.24676 0.39994 0.49172 0.58203 0.74023 0.37923 0.49351 0.88826 1.1231 1.4863 1.8809 0.18209 0.2485 0.39805 0.51162 0.61523 0.79688 0.21718 0.26601 0.45195 0.55074 0.6875 0.85351l0.38086 0.47461 0.34375 0.4961c0.47111 0.64401 0.96089 1.3454 1.4688 2.0664 1.0328 1.4246 2.1214 2.9459 3.209 4.4824 2.1751 3.0573 4.3843 6.0959 6.0703 8.3359 1.4684 1.974 2.5554 3.3208 2.791 3.6445-0.27232-0.30451-1.4308-1.5775-3.0078-3.457-1.831-2.1263-4.205-5.0322-6.5606-7.9355-1.1778-1.4439-2.355-2.9027-3.4609-4.2695-0.56133-0.68425-1.0878-1.3305-1.5957-1.957l-0.38086-0.45507-0.30859-0.3418c0 5.6579 0.10856 11.314 0.50781 15.453 1.1226 11.865 8.1583 18.283 14.719 29.428 6.5792 11.164 14.042 13.762 18.809 13.061 2.7548-0.41822 2.7738-9.6825 2.3027-19.25 13.194 6.5119 28.799 9.6431 33.039 10.859 6.634 1.8988 13.591 4.422 19.625-9.8164 6.0359-14.238-15.402-57.581-32.619-79.736-3.7689-4.8406-8.4627-9.3611-13.555-13.5 0 0-2.7209-3.0529-7.3418-7.3633-4.3319-4.0251-10.311-9.1323-17.27-13.859-0.68995 1.0625-1.687 2.5035-2.9199 3.9648-1.2145 1.4805-2.7003 3.1351-4.4043 4.7871-1.704 1.6328-3.6058 3.3202-5.6172 4.8008-0.97897 0.79802-2.0312 1.4623-3.0469 2.1641-1.0141 0.70177-2.0827 1.2561-3.0801 1.8828-0.97897 0.60726-2.0285 1.0417-2.9707 1.5547-0.94222 0.49352-1.8667 0.87369-2.7188 1.2344-0.87039 0.34124-1.6324 0.70218-2.3574 0.92969-0.70666 0.24675-1.3222 0.45691-1.8301 0.60742-0.78018 0.24675-1.287 0.43825-1.5059 0.51367 0.20047-0.0945 0.72533-0.28338 1.4688-0.58789 0.50787-0.189 1.1242-0.41916 1.8125-0.68359 0.70666-0.266 1.4496-0.68464 2.2832-1.0645 0.83363-0.37977 1.7586-0.7962 2.6641-1.3457 0.90714-0.55127 1.9214-1.0262 2.8652-1.6914 0.96094-0.64575 1.9925-1.2327 2.9531-1.9922 0.97896-0.74027 1.9941-1.4428 2.918-2.2793 1.9212-1.5558 3.6992-3.2821 5.293-4.9726 1.5954-1.708 2.9898-3.383 4.0957-4.8828 1.1059-1.4805 2.0117-2.8651 2.6465-3.8906l-0.0371-0.0176 0.0566-0.0176 0.0137-0.0215c0.36253-0.62651 0.61753-1.0995 0.78125-1.3848-7.4308-6.4367-21.639-9.1906-24.701-9.7226h-0.0176c-1.0692 0.13301-2.1574 0.26495-3.2266 0.51171-0.65321 0.11379-1.287 0.26796-1.9219 0.43946-0.63484 0.16976-1.287 0.30172-1.9219 0.51172-2.5376 0.70176-5.037 1.6142-7.5195 2.582-4.9483 1.9566-9.8056 4.2526-14.5 6.8164l-0.19922 0.11328-0.2168-0.0566-2.6816-0.75976c-0.88709-0.22751-1.7762-0.53191-2.6816-0.72266-1.831-0.37976-3.6241-0.87294-5.4551-1.1582l-2.7383-0.49219-2.7734-0.36133c-0.90546-0.133-1.8304-0.22747-2.7559-0.30273l-2.7695-0.22852c-1.8677-0.0752-3.7163-0.16983-5.584-0.15039-1.8477 0.0174-3.7148 0.0548-5.5625 0.20703-3.535 0.28542-7.0874 0.7403-10.549 1.6328 3.4431-0.98702 6.9796-1.5187 10.531-1.8984 1.8494-0.20826 3.714-0.30338 5.5801-0.35938 1.8677-0.0752 3.7355-0.0402 5.6016 0.0176l2.7891 0.1543c0.94222 0.0368 1.8674 0.11085 2.793 0.22461l2.7891 0.30664 2.7734 0.41797c1.8677 0.24675 3.678 0.68245 5.5273 1.043 0.92383 0.15051 1.8144 0.43433 2.7383 0.64257l2.5176 0.64649c4.6209-2.676 9.3873-5.0686 14.299-7.1582 2.5009-1.0238 5.0205-2.0085 7.6133-2.8066 0.63317-0.2275 1.3035-0.37936 1.9551-0.56836 0.6532-0.17151 1.3069-0.3631 1.9785-0.4961 0.65154-0.15051 1.3047-0.28272 1.9746-0.39648l0.2539-0.0391-1.2871-5.7344-1.9043 0.51367c-0.27231-0.55126-0.54216-1.1212-0.81446-1.7109-3.8407-8.542-4.533-8.9981-9.752-44.613-5.2006-35.578-42.115-67.152-42.115-67.152 3.6235-7.8402 2.7168-16.609 2.7168-16.609 10.892-1.1393 17.487-3.8352 21.674-6.8926-0.90547-1.6906-1.7739-3.3971-2.6426-5.0859-0.21919 0.20826-0.47263 0.43423-0.72656 0.625-0.79855 0.60726-1.5577 1.3662-2.4648 1.8965-0.88709 0.5705-1.7757 1.1976-2.7363 1.6719-0.94222 0.51276-1.9214 0.94836-2.9004 1.3281-0.95892 0.43752-1.9738 0.68573-2.916 0.99024-1.9212 0.51277-3.7354 0.83323-5.3125 0.92773-1.5754 0.13321-2.8995 0.0402-3.8066-0.0176-0.90546-0.0752-1.4121-0.18945-1.4121-0.18945s0.50665-0.0388 1.4121-0.17187c0.88876-0.1138 2.1588-0.34262 3.6641-0.70313 1.4852-0.32375 3.2077-0.83609 5.002-1.4434 0.88709-0.34126 1.8113-0.66209 2.7168-1.0996 0.92383-0.3605 1.8484-0.81698 2.7188-1.3106 0.92384-0.4375 1.7769-1.0048 2.6289-1.5176 0.87038-0.51277 1.6289-1.1401 2.4258-1.6914 0.34414-0.2275 0.67141-0.49347 0.98047-0.74023-4.0779-8.087-7.7198-16.212-10.855-24.262-18.975 1.386-26.043 15.264-26.043 15.264s-0.83437 1.5933-1.2871 4.0801c0 0-0.0926-2.4079 0.17969-4.3262-8.0105-1.6135-14.677 0.79616-19.752 4.1562l-0.0566 0.0371c-2.7181 2.4308-4.8558 4.9556-6.4863 7.3672-3.9142 7.1559-5.8526 14.638-6.6328 18.283-0.27064 1.253-0.3988 2.0687-0.43555 2.2402v0.0371c-0.72505 3.7591-1.3047 6.457-1.3047 6.457-1.2093-2.4088-2.7393-4.4415-4.4297-6.166-2.0909-1.4752-3.6544-3.2398-5.793-4.5274-2.5779-5.7685-0.40481-7.2612 0.17968-10.184 1.4186-2.3238 2.6504-4.9024 2.6504-4.9024 2.5619-5.1954-1.6914-6.8594-1.6914-6.8594-1.9318-0.38228-1.8672-1.916-1.8672-1.916l0.70508-1.1172c-0.32897-3.2005-4.248-2.1699-4.248-2.1699 1.0655-3.9834-0.39258-4.4434-0.39258-4.4434-1.9763-0.88739-2.1719-1.7285-2.1719-1.7285l0.375-1.5938c1.1406-4.7155-4.1035-4.2012-4.1035-4.2012l-4.7207-0.4043c-2.3663-0.27166-2.791-2.6738-2.791-2.6738-0.42437-2.9542-2.3398-2.998-2.3398-2.998-1.8034 0.16265-3.2305-1.0137-3.2305-1.0137-1.3569-1.4818-3.9297-2.3867-3.9297-2.3867l-1.9668-0.38476c1.6071 0.33886 2.9746-0.85742 2.9746-0.85742l-1.4805-0.17969c3.3635-1.4178 2.6289-2.9414 2.6289-2.9414-1.3185 1.8901-3.5762 1.4317-3.5762 1.4316 1.1791-0.13596 3.2129-3.7344 3.2129-3.7344l-2.3398 0.82031c2.0453-2.654 4.9082-1.4473 4.9082-1.4473-1.8013-2.9087-7.1348-2.3203-7.1348-2.3203 1.0901-1.1459 3.9082-0.25 3.9082-0.25-3.6507-3.0376-8.25 2e-3 -8.25 2e-3 2.546-3.0609 0.32617-4.1543 0.32617-4.1543v2e-3c0.84011 1.7417-1.3086 4.1777-1.3086 4.1777 1.2758-2.2059-0.80078-3.7188-0.80078-3.7188 1.298 4.2534-4.9824 5.9492-4.9824 5.9492-8e-3 -2.2878-1.7383-2.0527-1.7383-2.0527 2.2372 1.6451-2.8945 5.334-2.8945 5.334-4.1534 0.44075-7.4629 6.2461-7.4629 6.2461-0.73269-1.9112-7.0566 11.137-7.0566 11.137-1.1873 2.5415-1.7626 4.8152-1.959 6.7949l-6e-3 -6e-3c-0.0116 0.10297-0.01 0.23125-0.0137 0.34766-0.0449 0.57561-0.0561 1.1212-0.043 1.6445-0.027 0.33845-0.0756 0.66116-0.19532 0.91211-0.55158 1.1556 0.0278 2.8452-0.5039 3.959-2.3923 5.0121 3.7501 15.711 2.0176 22.971-0.48445 2.03-0.89606 5.4247-2.0176 6.5996-0.0371 0.0389 0.0297 0.79102 0 0.79102 0 0 2.1945-0.71248 2.2695-0.79102 0.49727-0.52094 2.2742-0.79939 2.7715-1.3203 0.71064-0.74446 1.317-1.9088 2.0156-2.6406-1.4246 3.39-3.6056 8.143-6.7617 10.332 3.3127-1.8822 9.2536-3.406 10.543-6.1074-0.0242 1.4783-0.24474 2.0971-0.75586 3.168-1.3086 2.7418-2.8428 6.145-4.5371 7.9199-1.255 1.3147-2.2676 2.7043-2.2676 2.6406 0-0.0618 5.499-1.5362 5.293-1.3203-3.3252 3.4834-6.161 6.2635-10.334 8.4492 6.8846 1.2883 13.794-0.19292 17.895-4.4883-0.45695 2.8774-3.7331 7.498-6.0488 8.7109 4.4978-2.582 10.92-4.395 13.105-8.9746-0.18661 0.94381-0.20246 2.2984-0.75586 3.168-0.80675 1.2677-1.4226 2.7126-2.0176 3.959-0.25785 0.54022-0.84139 1.6458-1.2676 2.2285 1.321-0.41818 8.8893-2.3907 10.09-3.0195 2.1771-1.1403 8.2646-6.9677 9.0723-9.5059 0.25126-0.78957 0.73448-2.015 1.291-2.9414-0.23522 6.2468-1.875 11.623-2.8047 14.172l-1.8066 1.6387c-25.314 1.1928-27.988 27.832-28.238 35.123 2.429-0.57052 6.1993-1.1376 6.7422-1.2129-2.7181 0.77702-6.7793 3.0529-6.7793 3.0527-19.772 14.79-23.016 36.948-23.469 41.6 1.7024 0.15225 3.1523 0.64448 3.1523 0.64454-2.6279 0.0752-3.2422 0.24609-3.2422 0.24609-16.509 2.5255-22.221 10.099-25.918 14.789 0 0-0.18117 0.2299-0.49024 0.62891-0.92384 1.2145-2.9718 4.0612-4.7109 7.3652 0 0 0.54443-2.0501 1.2344-4.2324-6.2714 3.5123-30.609 13.477-30.609 13.477s-10.875-8.7881-15.842-9.0156c-1.9334-0.088-5.4529 1.9244-8.9922 4.959l-158.94-181.56-2.3203-12.414zm321.16 114.19c-0.12179 0.0386-0.49609 0.14001-0.49609 0.14844 0 0.39941 0.21426 0.2369 0.49609-0.14844zm227.71-111.52c0.15149 0.23578 0.30594 0.46656 0.45703 0.70313 0.83204 1.2774 1.6583 2.5717 2.4629 3.877 0.69808 1.1065 1.3765 2.2244 2.0547 3.3418 5.25 8.6629 10.035 17.438 14.283 26.16l-27.875-12.83a31.915 15.338 60.319 0 0-1.9883-3.2774zm-161.28 0.55469c-0.0189-0.23739 0.0464 0.79206 0.0469 0.85352 4e-3 1e-3 6e-3 3e-3 0.01 4e-3 -0.0262-0.37553-0.0335-0.55434-0.0566-0.85742zm0.0625 1.1894c0.0113 0.22574 0.0193 0.36344 0.0488 0.8418 8e-3 -0.0118 0.0155-0.0219 0.0234-0.0332-0.0144-0.21801-0.0345-0.48118-0.0566-0.8086 1e-3 1.3e-4 -0.0173-1.4e-4 -0.0156 0zm-5.5625 0.64063c-4e-3 1e-3 -8e-3 -7.4e-4 -0.0117 2e-3 0.0357 0.0469 0.0289 0.044 0.0664 0.0957 9e-3 3e-3 0.0183 5e-3 0.0273 8e-3 -0.0273-0.0348-0.0541-0.0712-0.082-0.10547zm-375.97 1.9277 29.793 22.023 2.6113 14.996zm376.88 4.3613v2e-3c3e-3 0.0246 8e-3 0.0305 0.01 0.0547 0.0751 0.0571 0.18591 0.13535 0.30273 0.2168 3e-3 -4e-3 6e-3 -9e-3 0.01-0.0137-0.0602-0.0533-0.11188-0.0964-0.19727-0.17969-0.0346-0.0248-0.1306-0.0767-0.125-0.0801zm-43.941 3.3906c-0.0199 9e-3 -0.0217 8e-3 -0.0371 0.0156-8.1e-4 7e-3 -4e-3 0.0114-4e-3 0.0176 0.0125-8e-3 0.0287-0.0151 0.0449-0.0234-7.8e-4 -4e-3 -2e-3 -6e-3 -4e-3 -0.01zm34.807 10.73c-0.12587 0.0794-0.23699 0.18419-0.35547 0.2754-4e-3 9e-3 -8e-3 0.0179-0.0117 0.0273 5e-3 5e-3 7e-3 0.0107 0.0117 0.0156 0.0231 0.024 0.032 0.0351 0.0527 0.0566 0.13436-0.12745 0.43917-0.46109 0.30274-0.375zm106.81 5.3867 31.148 4.9082a31.915 15.338 60.319 0 0 1.3262 2.5312l-14.152 25.189c-1.8759-2.931-3.727-5.9093-5.5371-8.9512-0.68831-1.1585-1.375-2.3162-2.0449-3.4922-0.79855-1.3668-1.578-2.7526-2.3398-4.1387-2.9966-5.3327-5.7986-10.695-8.4004-16.047zm63.639 1.6777 25.598 7.998c1.7748 3.776 3.4552 7.539 5.0156 11.271 3.6589 8.7528 6.7073 17.346 9.0859 25.609l-37.707-38.65a31.915 15.338 60.319 0 0-1.9922-6.2285zm-518.34 3.1953 8.0469 9.1894-4.3145-1.4238zm489.31 6.1211a31.915 15.338 60.319 0 0 2.791 4.0488 31.915 15.338 60.319 0 0 1.748 2.1856l-8e-3 44.006c-6.9114-8.3014-13.653-17.502-20.049-27.396zm32.211 5.7109 37.545 33.559c0.5481 2.0594 1.0674 4.1034 1.5254 6.1133 3.952 17.327 4.2198 31.315 0.9043 40.828-0.23955 0.55421-0.49975 1.0639-0.77735 1.541l-40.73-74.182a31.915 15.338 60.319 0 0 1.5332-7.8594zm-23.365 5.1133a31.915 15.338 60.319 0 0 7.0352 5.2383l21.213 65.395c-2.3098-1.6739-4.2628-3.1976-5.6152-4.2617-8.6466-6.9019-17.381-15.607-25.873-25.666zm-102.25 2.9492c0.32577 2.7913 0.65426 5.5851 1.0352 8.3379 0.18043 1.3668 0.41404 2.7325 0.66797 4.0801 0.12697 0.66503 0.29109 1.3288 0.45313 1.9746 0.16373 0.64577 0.36291 1.2714 0.58008 1.8594l0.0918 0.24805-0.0371 0.2461c-0.14534 0.98703-0.34256 1.8792-0.57812 2.791-0.23555 0.89252-0.50903 1.7849-0.81641 2.6582-0.16373 0.47426-0.32738 0.94949-0.50781 1.4062 0.41598 2.0301 0.65153 4.06 0.79687 6.0918 0.12696 2.1263 0.10822 4.2526-0.0371 6.3789-0.12696 2.1267-0.41445 4.2344-0.86719 6.3047-0.21884 1.043-0.48978 2.0682-0.79883 3.0938-0.25427 0.94852-0.63234 1.8424-0.94141 2.7734 0.67158 1.4613 1.1219 2.92 1.5195 4.4395 0.3809 1.596 0.70906 3.2303 0.8711 4.8613 0.36287 3.0958 0.30926 6.2494-0.0547 9.3242 0.0718 0.0193 0.23711 0.0718 0.47266 0.16797 0.36252 0.15051 0.86712 0.39862 1.502 0.70313 1.2513 0.64576 3.0277 1.5938 5.0391 2.9238 1.0141 0.64402 2.0852 1.4034 3.1895 2.2207 1.0876 0.85402 2.2468 1.7301 3.3711 2.7363 1.1778 0.94853 2.3012 2.03 3.4238 3.1504 1.1795 1.0623 2.2136 2.3141 3.3379 3.4726 1.0695 1.2145 2.0663 2.4888 3.082 3.7051 0.94222 1.2901 1.8628 2.5416 2.752 3.7754 0.83363 1.2723 1.6132 2.5058 2.375 3.6836 0.76011 1.1585 1.323 2.354 1.9395 3.418 0.5797 1.0623 1.1582 2.0141 1.5391 2.9434 0.43436 0.89252 0.79916 1.6706 1.0898 2.3164 0.37924 0.81552 0.66915 1.385 0.81445 1.707-0.18209-0.30451-0.47181-0.89115-0.87109-1.6699-0.32577-0.62651-0.725-1.4043-1.1777-2.2793-0.41766-0.89076-1.0308-1.8224-1.6289-2.8672-0.6532-1.0238-1.2531-2.2022-2.0684-3.3223-0.78016-1.1393-1.6109-2.3328-2.4629-3.5684-0.92385-1.1953-1.8882-2.4104-2.8672-3.6445-1.0508-1.1585-2.0804-2.392-3.168-3.5312-1.1427-1.1008-2.2128-2.2965-3.3906-3.3027-1.1594-1.043-2.2991-2.0684-3.4785-2.9609-1.141-0.95028-2.3003-1.7664-3.4062-2.5645-1.1059-0.75952-2.1765-1.4435-3.1738-2.0508-2.0114-1.2163-3.7523-2.0699-4.9668-2.6387-0.61679-0.26599-1.1059-0.47573-1.4316-0.58984l-0.10742-0.0371c-0.18209 1.1585-0.43508 2.2963-0.74414 3.4355-0.41598 1.5768-0.96088 3.1135-1.5957 4.6133-0.65154 1.4823-1.4106 2.924-2.2793 4.2715-0.88876 1.3493-1.8523 2.6201-3.0117 3.7227 1.1226-1.12 2.0484-2.4494 2.9004-3.7969 0.83362-1.386 1.5222-2.8284 2.1387-4.3281 0.5797-1.4823 1.0703-3.0382 1.4512-4.5957 0.36085-1.5558 0.63431-3.1697 0.81641-4.7832 0.30739-3.2096 0.28873-6.456-0.16407-9.6445-0.21717-1.596-0.56396-3.1707-1-4.709-0.43436-1.519-0.9749-3.0572-1.6465-4.4258l-0.10937-0.20703 0.0723-0.28516c0.30907-0.96778 0.6707-1.9156 0.90625-2.9219 0.2723-0.98702 0.50903-1.9937 0.68945-3 0.3809-2.0126 0.59614-4.064 0.66797-6.1133 0.0919-2.051 0.0398-4.1206-0.14062-6.1699-0.10863-1.1393-0.25432-2.298-0.45313-3.418-0.14534 0.28525-0.29216 0.57-0.4375 0.85351-0.87039 1.6135-1.8325 3.1885-2.9551 4.6113-1.1243 1.4438-2.3538 2.7756-3.6953 3.9727 0.48949-0.77877 1.034-1.4827 1.5234-2.2422 0.47111-0.75952 0.94092-1.5184 1.377-2.3164 0.88709-1.5383 1.6832-3.1133 2.4082-4.7461 0.74341-1.6135 1.343-3.2855 1.9043-4.9551 0.2723-0.85403 0.52696-1.7085 0.74414-2.5625 0.20047-0.77877 0.39763-1.594 0.54297-2.3535-0.21717-0.62688-0.40037-1.2172-0.52734-1.8438-0.14535-0.70352-0.27226-1.4232-0.38086-2.125-0.19879-1.4246-0.28782-2.8311-0.36133-4.2539-0.0535-1.4053-0.071-2.8291-0.0176-4.2344 0.0551-1.4035 0.10948-2.8096 0.27149-4.2148zm115.64 4.4297a31.915 15.338 60.319 0 0 1.7969 0.0176l46.68 70.592c-6.8202 9.3273-22.237 0.66456-32.195-6.3496zm-195.87 36.867c5.3e-4 0.0609-4e-3 0.11888-4e-3 0.17968l-0.0508-0.0586zm-27.438 47.441c0.21718 0.24711 0.56333 0.62563 1.0879 1.1191 0.852 0.79802 2.1565 1.8444 3.8789 2.793 0.88709 0.45502 1.8476 0.91099 2.8984 1.2715 1.0708 0.36051 2.1937 0.68201 3.4082 0.85351 1.1778 0.20826 2.4452 0.32227 3.7148 0.32227 1.2864-0.0367 2.5925-0.0553 3.8789-0.0937 5.2741-0.056 10.546 0.66213 14.352 1.8574 1.9215 0.58976 3.4621 1.2551 4.5312 1.7871l0.0351 0.0176c-1.2145-2.5253-1.9567-4.7648-2.4629-6.3398-0.45441-1.4438-0.65075-2.374-0.6875-2.584 0.0736 0.21001 0.37842 1.0866 0.94141 2.4726 0.63317 1.5943 1.6684 3.8129 3.0449 6.3574 0.14534 0.24675 0.29188 0.51504 0.43555 0.77929l0.21679 0.37891c1.3047 2.2229 2.971 4.5939 4.9824 6.834 1.1961 1.309 2.557 2.527 4.0605 3.5508 1.4852 1.0448 3.1538 1.8215 4.8945 2.3535 0.87039 0.24675 1.7742 0.43703 2.6445 0.55078 0.94222 0.0945 1.8476 0.15263 2.7363 0.17188 1.8129 0.0193 3.589-0.15261 5.293-0.47461 3.4247-0.60727 6.5058-1.8045 8.9883-3.1328 2.4842-1.33 4.4399-2.6975 5.7266-3.7598 1.0157-0.79802 1.6512-1.3858 1.8867-1.6133-0.18209 0.24676-0.74367 0.91048-1.7226 1.8223-1.2329 1.1393-3.0627 2.7326-5.5469 4.2324-1.9195 1.12-4.2037 2.2427-6.7598 3.0215 0 0.36052 0.0548 0.94927 0.21679 1.707 0.25392 1.2915 0.83399 2.9637 1.668 4.5195 0.43601 0.77877 0.92618 1.517 1.4141 2.2012 0.50785 0.64612 0.9977 1.2543 1.4687 1.7285 0.43604 0.49351 0.8519 0.85313 1.1426 1.1191 0.16205 0.15225 0.28782 0.26655 0.36133 0.3418-0.0918-0.056-0.21801-0.15391-0.39844-0.28516-0.30739-0.24676-0.76051-0.55113-1.25-1.0254-0.52456-0.41827-1.0707-0.98648-1.6504-1.5938-0.56132-0.62652-1.1406-1.3492-1.6484-2.0898-1.0324-1.5383-1.8133-3.2445-2.2109-4.6113-0.20047-0.66501-0.32661-1.236-0.39844-1.6543-0.34415 0.0945-0.70583 0.19234-1.0684 0.26758-1.7575 0.36052-3.627 0.57227-5.5117 0.57227-0.96059 0.0175-1.9199-0.0403-2.8438-0.13477-0.99735-0.0962-1.9398-0.2672-2.9004-0.5332-1.9028-0.51277-3.6604-1.4583-5.2559-2.5801-1.577-1.12-2.9722-2.4323-4.2051-3.8184-1.6305-1.8218-2.9171-3.7786-3.9863-5.6582l-0.0195-0.0176-0.0723-0.13281c-0.21717-0.32202-0.63281-0.83594-0.63281-0.83594l-0.0195-0.0176c-0.12696-0.0752-0.63238-0.40074-1.4844-0.875-0.99567-0.54952-2.4464-1.2348-4.2773-1.8613-3.6603-1.2915-8.8259-2.1791-14.01-2.2754-1.3047-0.0367-2.6093 3.7e-4 -3.9141-0.0566-1.2864-0.0385-2.5726-0.19075-3.7871-0.4375-1.2145-0.24676-2.3586-0.60685-3.4277-1.0059-1.0508-0.41652-2.0308-0.91072-2.8828-1.3867-1.7207-1.0238-2.9903-2.1278-3.8223-2.9434-0.52624-0.53201-0.86868-0.94791-1.0508-1.1758zm26.441 15.912c9.0613 2.6198 19.937 8.5435 30.377 14.961 10.403 6.4157 26.278 8.5416 35.557 15.414 5.6917 4.2159 6.0172 14.771 5.4375 22.309l-1.5781 0.32226-0.6875 7.9551h-0.12695c-1.1961-0.1138-12.632-0.83624-34.18 11.902l0.0527 0.1543c0 0.0193 0.0915 0.30039 0.43555 1.0039 0.34415 0.68252 0.88895 1.6333 1.6875 2.7148 0.79687 1.0815 1.7742 2.2972 2.9336 3.5117 1.141 1.253 2.4473 2.4866 3.7871 3.6836 1.3415 1.1953 2.7188 2.3573 4.0586 3.3828 1.3231 1.043 2.6293 1.9344 3.7168 2.7324 1.1059 0.77876 2.048 1.3865 2.7012 1.8223 0.65153 0.43751 1.0312 0.70313 1.0312 0.70313s-0.38008-0.2297-1.0684-0.62696c-0.66992-0.39901-1.6679-0.93133-2.8106-1.6523-1.141-0.72103-2.5015-1.5186-3.8965-2.4863-1.0324-0.70352-2.1018-1.4635-3.1543-2.2598-0.83364 0.87328-3.5682 3.7593-7.2285 7.8789-2.2122 2.5061-4.7502 5.449-7.3965 8.6953-2.6278 3.2271-5.3975 6.7196-8.0254 10.346-1.3599 1.7658-2.6109 3.6271-3.8789 5.4297-1.2697 1.785-2.3917 3.6463-3.5527 5.4121-1.141 1.7658-2.1218 3.5316-3.1191 5.1836-0.96059 1.6888-1.7578 3.3202-2.5547 4.8008-0.79855 1.4998-1.3578 2.9635-1.9375 4.1973-0.59807 1.234-0.97892 2.3736-1.3047 3.3223-0.36252 1.0448-0.65355 1.8385-0.83398 2.332 0.16205-0.51102 0.41563-1.3262 0.75976-2.3711 0.30907-0.94852 0.6711-2.089 1.2324-3.3613 0.54462-1.253 1.0702-2.7329 1.832-4.252 0.76047-1.4998 1.5215-3.1691 2.4453-4.8789 0.96058-1.6888 1.9027-3.4924 2.9902-5.2949 1.1243-1.8043 2.2124-3.7036 3.4453-5.5254 1.2312-1.8428 2.4269-3.7388 3.75-5.5625 2.5376-3.7013 5.2361-7.2917 7.8105-10.613 2.5543-3.3233 5.0405-6.3583 7.1973-8.9414 3.3345-3.9674 5.907-6.8367 6.9043-7.9375-1.3231-1.0255-2.6104-2.1064-3.7715-3.209-1.2496-1.176-2.3534-2.3716-3.2422-3.4531-0.21719-0.26601-0.41751-0.51496-0.59961-0.76172-9.4773 7.9172-20.334 19.726-31.824 37.381l0.0351 0.0215c-5.3994 7.632-9.3882 16.346-12.215 24.129 0 0-1.4127 2.8286-3.4258 6.7207-0.43436 0.74027-0.941 1.7101-1.5391 2.9824l-0.0195 0.0371c-0.21719 0.41652-0.43287 0.83545-0.65039 1.2539-0.63482 1.2145-1.304 2.4677-1.9922 3.7207-9.3336 15.453-24.342 21.832-24.342 21.832-0.21112 0.0455-0.44019 0.10956-0.65625 0.16016l-73.998-84.531c2.9828-2.9812 6.0392-5.9376 9.1953-7.1543 6.796-2.6006 30.356-9.2447 47.338-13.289 17-4.0251 26.277-22.783 26.277-22.783s1.8133-4.9755 2.7188-10.672c0 0-0.0547 4.9008-0.5625 8.9453 21.766-17.903 30.465-45.736 30.465-45.736zm-19.01 2.5039s0.12541 0.56797 0.19726 1.5918c0.0367 1.0255 0.12836 2.5074-0.0898 4.2539-0.0718 0.89252-0.23559 1.843-0.41602 2.8301-0.23555 0.98702-0.43746 2.049-0.81836 3.0938-0.3074 1.064-0.72225 2.1467-1.1934 3.209-0.41765 1.0833-1.0331 2.0878-1.541 3.1504-0.61477 1.0063-1.25 1.9738-1.8848 2.9434-0.6883 0.91004-1.4121 1.7866-2.082 2.6406-0.7618 0.77702-1.4875 1.5192-2.1758 2.2402-0.68828 0.70177-1.4523 1.2532-2.1055 1.8027-1.268 1.1585-2.5346 1.8219-3.3516 2.3906-0.72336 0.45711-1.1766 0.74108-1.2852 0.79883 0.0902-0.0945 0.45111-0.49235 1.0859-1.0996 0.34414-0.34302 0.78092-0.76208 1.2871-1.2363 0.50786-0.45677 0.99648-1.0434 1.5762-1.6699 0.56133-0.62652 1.2136-1.2539 1.8301-1.9941s1.2503-1.5167 1.9219-2.334c0.61646-0.83478 1.2148-1.7478 1.8848-2.6211 0.5797-0.92928 1.177-1.8816 1.7383-2.8301 0.50787-1.0063 1.1078-1.953 1.5254-2.9785 0.45273-1.0063 0.92343-1.9762 1.2676-2.9824 0.78016-1.9566 1.3234-3.8714 1.7227-5.5234 0.81524-3.3426 0.90625-5.6761 0.90625-5.6758zm152.6 121.47 0.97852 29.236 0.0176 0.18946-0.0899 0.15234-21.025 44.121-0.12695 0.26563-0.25195-0.11328-34.924-14.695 34.887 13.99 20.154-44.025-1.416-28.799c0.6532-0.1138 1.2539-0.22776 1.7969-0.32226zm23.432 13.154c0.12696 0.18901 0.68944 1.0446 1.6133 2.375 1.0341 1.5558 2.6109 3.6622 4.5137 6.1875 0.96059 1.253 1.9746 2.6195 3.1523 3.9863 1.1243 1.4053 2.3741 2.832 3.6621 4.3125 1.2496 1.519 2.718 2.9244 4.0762 4.4609 1.4317 1.463 2.9 2.9424 4.4219 4.3476 1.5587 1.3668 3.0092 2.8678 4.623 4.1016 1.6121 1.253 3.0988 2.6194 4.7109 3.6816 1.5954 1.0833 3.0632 2.2595 4.6035 3.1328 1.5219 0.89252 2.8835 1.8969 4.2969 2.5234 1.3766 0.66501 2.6276 1.33 3.752 1.918 1.141 0.51277 2.1719 0.87322 3.0059 1.2148 1.2696 0.51275 2.1207 0.87315 2.4648 1.0254-0.34414-0.0752-1.2511-0.32308-2.5742-0.68359-0.8687-0.24676-1.9386-0.51115-3.1348-0.91016-1.1778-0.45676-2.5175-0.98865-3.9492-1.5977-1.4868-0.54951-2.9179-1.4791-4.5137-2.2754-1.6305-0.79802-3.189-1.8776-4.8379-2.9609-1.6856-1.043-3.264-2.3547-4.8945-3.627-1.6673-1.253-3.1719-2.7543-4.7656-4.1211-1.5236-1.4613-3.0089-2.9807-4.459-4.4805-1.3782-1.575-2.7913-3.0736-4.0059-4.6504-2.5544-3.0559-4.6736-6.1324-6.4512-8.7715-3.3161-4.9929-5.0934-8.7344-5.3106-9.1894zm-178.71 39.395h2e-3c-0.11026 0.22751-0.54371 1.158-1.1602 2.4863-0.68829 1.4998-1.5797 3.4562-2.2129 5.4688-0.14534 0.49351-0.34368 0.98724-0.43555 1.5-0.10864 0.51276-0.28665 0.98696-0.3418 1.4805-0.0718 0.49528-0.20043 0.96881-0.21874 1.4238-0.0367 0.43751-0.12696 0.87276-0.12696 1.291 0 0.39901-0.0196 0.7776-0.0547 1.0996 0.0167 0.34126 0.0352 0.6475 0.0352 0.875v0.47266l-0.35742-0.4082c-0.23177-0.43682-0.47922-1.108-0.65625-1.9648-0.12696-0.41651-0.14604-0.89152-0.20117-1.4043-0.0535-0.51101-0.0351-1.0425 0-1.5938 0.0184-0.54952 0.0937-1.1207 0.2207-1.6895 0.0902-0.57052 0.27068-1.1189 0.41602-1.6894 0.3809-1.1008 0.83153-2.182 1.3945-3.0938 0.52456-0.93103 1.1253-1.7292 1.6699-2.375 1.0324-1.2145 1.9171-1.8404 2.0273-1.8789zm32.35 54.506 1.9219 12.209-7.1035-8.1074c1.6673-1.918 2.4473-4.0625 2.4473-4.0625z"/>
        <path d="m703.12 165.54-6.2297-2.5201 2.2486-6.5872-3.6419 1.7483-1.5453 4.6446 1.0074-4.3874-1.8627 0.89427-1.3565 3.8606 0.85034-3.6173-1.8711 0.89602-0.76681 2.1631 0.3124-1.9443-1.7959 0.86277-1.3465 4.5484 0.76681-4.2701-1.8293 0.87677-1.3732 4.3296 0.81859-4.0636-1.8143 0.86977-1.2763 4.0216 0.73005-3.7591-1.9696 0.94503-1.1861 5.0279-94.753 45.457-5.5096-0.85402-9.1866 8.955 12.473-1.4385 2.982-4.9281 94.751-45.457 4.4104 2.3433 1.8293-0.87677-2.967-1.7466 3.4715 1.5033 1.8544-0.88902-3.2426-1.8743 3.7555 1.6275 1.8794-0.90127-2.3572-1.4298 2.83 1.204 1.9279-0.92577-3.3496-2.2331 3.9292 1.9548 1.7057-0.81902-2.9352-1.5593 3.3913 1.3423 1.9112-0.91877-3.5868-1.9286 4.0846 1.6905 3.8324-1.8376"/>
        <path d="m650.84 6.41-6.6557 0.54427-0.68662-6.9582-2.566 3.2236 0.51956 4.8879-0.89878-4.4101-1.3114 1.6468 0.36754 4.0968-0.72337-3.6488-1.3181 1.6555 0.1988 2.2961-0.51955-1.8936-1.2646 1.5908 0.65989 4.7111-1.0675-4.1984-1.2897 1.6188 0.54796 4.5256-0.93888-4.0356-1.2763 1.6048 0.50619 4.2054-0.89043-3.7223-1.3883 1.743 1.0007 5.0734-66.737 83.85-5.3209 1.7203-4.5992 12.233 10.66-6.9389 0.65822-5.7926 66.739-83.85 4.9416 0.119 1.2897-1.6188-3.3947-0.23276 3.7505-0.2135 1.3064-1.6416-3.6987-0.224 4.0596-0.22926 1.3231-1.6643-2.7147-0.22226 3.0472-0.19425 1.3582-1.708-3.941-0.49876 4.3502-0.014 1.2012-1.5085-3.2911-0.0805 3.6118-0.32201 1.3465-1.6923-4.0312-0.119 4.3803-0.32026 2.6997-3.3933"/>
        <path d="m191.21 531.12-6.5671 1.2583-1.3666-6.8462-2.2353 3.4826 0.99735 4.8056-1.3281-4.2894-1.1427 1.7798 0.76847 4.0356-1.0775-3.5526-1.148 1.7885 0.4235 2.2646-0.70283-1.8288-1.1023 1.7186 1.1191 4.6149-1.4748-4.0619-1.1225 1.75 0.98867 4.4434-1.3293-3.9131-1.112 1.7343 0.91682 4.1284-1.2523-3.6068-1.2085 1.8848 1.4944 4.9369-58.136 90.607-5.1241 2.2859-3.3704 12.663 9.9197-8.0523 0.0862-5.8326 58.136-90.607 4.9291-0.41476 1.1226-1.7483-3.4003 0.13476 3.7094-0.61777 1.1377-1.7728-3.7004 0.17501 4.0161-0.66677 1.1527-1.7973-2.7231 0.0718 3.0121-0.52327 1.1828-1.8446-3.9694-0.07 4.3252-0.48301 1.0475-1.631-3.2827 0.27475 3.5617-0.71052 1.1728-1.8288-4.0211 0.31851 4.3269-0.79278 2.3505-3.6646"/>
        <path d="m822.28 37.87-6.228-2.5183 2.247-6.5872-3.6419 1.7483-1.5453 4.6429 1.0074-4.3856-1.8627 0.89427-1.3565 3.8606 0.85201-3.6191-1.8711 0.89777-0.76848 2.1631 0.3124-1.9443-1.7959 0.86103-1.3465 4.5501 0.76681-4.2719-1.8293 0.87853-1.3716 4.3296 0.81692-4.0636-1.8126 0.86978-1.2763 4.0216 0.73005-3.7591-1.9713 0.94503-1.1861 5.0279-94.753 45.457-5.508-0.85402-9.1883 8.9532 12.474-1.4368 2.9804-4.9281 94.753-45.457 4.4087 2.3433 1.8293-0.87853-2.9653-1.7448 3.4715 1.5033 1.8527-0.88903-3.2426-1.876 3.7572 1.6293 1.8794-0.90128-2.3572-1.4298 2.8283 1.2023 1.9296-0.92403-3.3496-2.233 3.9276 1.9548 1.7057-0.81902-2.9352-1.561 3.3913 1.3423 1.9112-0.91702-3.5868-1.9286 4.0846 1.6905 3.8324-1.8393"/>
        <path d="m829.69 216.94-6.228-2.5183 2.247-6.5872-3.6419 1.7483-1.5453 4.6429 1.0074-4.3856-1.8627 0.89428-1.3565 3.8606 0.85201-3.6191-1.8711 0.89778-0.76847 2.163 0.3124-1.9443-1.7959 0.86103-1.3465 4.5501 0.7668-4.2719-1.8293 0.87853-1.3716 4.3296 0.81693-4.0636-1.8126 0.86978-1.2763 4.0216 0.73005-3.7591-1.9713 0.94503-1.1861 5.0279-94.753 45.457-5.508-0.85402-9.1883 8.9532 12.473-1.4368 2.982-4.9281 94.753-45.457 4.4087 2.3433 1.8293-0.87853-2.9653-1.7448 3.4698 1.5033 1.8544-0.88903-3.2426-1.876 3.7572 1.6293 1.8794-0.90128-2.3572-1.4298 2.8283 1.2023 1.9295-0.92403-3.3496-2.2331 3.9276 1.9548 1.7057-0.81903-2.9352-1.561 3.3913 1.3423 1.9112-0.91703-3.5868-1.9286 4.0846 1.6906 3.8324-1.8393"/>
        <path d="m701.34 544.73-6.2263 2.5253-2.5677-6.4577-1.572 3.8606 1.8393 4.5239-2.0716-3.9534-0.80356 1.974 1.4751 3.8116-1.694-3.2761-0.8069 1.9811 0.82027 2.1403-1.0174-1.6573-0.77516 1.904 1.9245 4.3139-2.1751-3.6996-0.79019 1.9391 1.7658 4.1704-2.0047-3.5824-0.78184 1.9198 1.6389 3.8746-1.8761-3.2953-0.85034 2.0878 2.3522 4.5571-40.906 100.41-4.6242 3.2519-1.0475 13.099 8.3046-9.8543-0.95892-5.747 40.906-100.41 4.7679-1.3755 0.78853-1.9373-3.3145 0.79802 3.5333-1.3335 0.80021-1.9653-3.6035 0.89952 3.8257-1.4438 0.81025-1.9916-2.6613 0.60552 2.8651-1.1043 0.83363-2.0441-3.9126 0.70877 4.1631-1.323 0.73506-1.8078-3.1741 0.91353 3.3713-1.3965 0.82528-2.0266-3.8942 1.1008 4.108-1.6258 1.6556-4.0618"/>
        <path d="m818.52 556.02-6.5604 1.2985-1.4033-6.8392-2.2169 3.4966 1.0241 4.7986-1.3515-4.2824-1.1327 1.7868 0.78852 4.0304-1.0959-3.5456-1.1394 1.7956 0.43602 2.2611-0.71334-1.8236-1.0926 1.7238 1.1444 4.6096-1.4969-4.0531-1.1126 1.7553 1.0124 4.4381-1.3498-3.9044-1.1043 1.7396 0.93888 4.1231-1.2713-3.5981-1.1978 1.89 1.5202 4.9281-57.656 90.944-5.1104 2.3153-3.3044 12.682 9.8766-8.1097 0.0551-5.8326 57.656-90.945 4.9266-0.44277 1.1126-1.7553-3.398 0.154 3.7054-0.63877 1.1293-1.7798-3.7004 0.19775 4.0128-0.69126 1.1427-1.8026-2.7214 0.0858 3.0088-0.53901 1.1728-1.8516-3.9694-0.049 4.3235-0.50752 1.0374-1.6363-3.2811 0.29401 3.5584-0.73152 1.1627-1.8358-4.0195 0.34126 4.3218-0.81727 2.3322-3.6786"/>
    </g>
</svg>
